<svg width="17" height="14" viewBox="0 0 17 14" version="1.1" xmlns="http://www.w3.org/2000/svg"><title>Shape</title><g id="Page-1" stroke="none" stroke-width="1" fill="none" fill-rule="evenodd"><g id="Desktop-Copy" transform="translate(-271 -1691)" fill-rule="nonzero" fill="#FFF"><g id="pricing" transform="translate(0 1180)"><g id="professional" transform="translate(204 247)"><g id="title"><g id="cta" transform="translate(0 238)"><path d="M67.85 33.71h13.248l-4.56 4.56a.85.85 0 1 0 1.203 1.202l6.01-6.01a.858.858 0 0 0 .106-.13c.014-.022.024-.045.036-.067.014-.026.03-.052.042-.08.012-.028.019-.058.027-.088.007-.023.016-.046.021-.07A.85.85 0 0 0 84 32.86v-.002a.857.857 0 0 0-.017-.164c-.005-.026-.014-.05-.022-.074-.008-.029-.015-.057-.026-.085-.012-.03-.029-.056-.044-.084-.012-.02-.02-.042-.034-.062a.837.837 0 0 0-.106-.13l-6.01-6.01a.85.85 0 0 0-1.203 1.202l4.56 4.56H67.85a.85.85 0 0 0 0 1.7z" id="Shape"/></g></g></g></g></g></g></svg>