<svg width="17" height="14" viewBox="0 0 17 14" version="1.1" xmlns="http://www.w3.org/2000/svg"><title>arrow-right-orange</title><g id="Page-1" stroke="none" stroke-width="1" fill="none" fill-rule="evenodd"><g id="arrow-right-orange" fill-rule="nonzero" fill="#FF804C"><path d="M.85 7.71h13.248l-4.56 4.56a.85.85 0 1 0 1.203 1.202l6.01-6.01a.858.858 0 0 0 .106-.13c.014-.022.024-.045.036-.067.014-.026.03-.052.042-.08.012-.028.019-.058.027-.088.007-.023.016-.046.021-.07A.85.85 0 0 0 17 6.86v-.002a.857.857 0 0 0-.017-.164c-.005-.026-.014-.05-.022-.074-.008-.029-.015-.057-.026-.085-.012-.03-.029-.056-.044-.084-.012-.02-.02-.042-.034-.062a.837.837 0 0 0-.106-.13L10.74.249a.85.85 0 0 0-1.203 1.202l4.56 4.56H.85a.85.85 0 0 0 0 1.7z" id="Shape"/></g></g></svg>