<svg version="1.1" id="Layer_1" xmlns="http://www.w3.org/2000/svg" x="0" y="0" width="115.333" height="111" viewBox="71.06 23.122 115.333 111" xml:space="preserve"><path fill="#FFF" d="M128.778 132.349a20.21 20.21 0 0 1-7.007-1.249l-39.97-14.727a2.001 2.001 0 0 1-1.309-1.877V25.579a2.002 2.002 0 0 1 2.691-1.877l39.97 14.726a16.347 16.347 0 0 0 11.25 0l39.97-14.726a1.999 1.999 0 0 1 2.691 1.877v88.917a2 2 0 0 1-1.309 1.877l-39.97 14.727a20.21 20.21 0 0 1-7.007 1.249zm-44.286-19.247l38.661 14.244a16.341 16.341 0 0 0 11.25 0l38.661-14.244V28.447l-37.278 13.734a20.35 20.35 0 0 1-14.015 0L84.492 28.447v84.655z"/><path fill="#FFF" d="M128.779 103.148a2 2 0 0 1-2-2V41.414a2 2 0 0 1 4 0v59.735a2 2 0 0 1-2 1.999zM128.779 117.715a2 2 0 0 1-2-2v-3.604a2 2 0 0 1 4 0v3.604a2 2 0 0 1-2 2z"/><path fill="#FFF" d="M128.778 133.438c-.748 0-1.496-.042-2.239-.125l-52.793-5.866a1.999 1.999 0 0 1-1.779-1.987V36.542a1.998 1.998 0 0 1 2.221-1.988l8.37.93a2 2 0 0 1-.441 3.975l-6.149-.683v84.893l51.015 5.669c1.193.133 2.402.132 3.594 0l51.016-5.669V38.776l-6.149.683a2 2 0 1 1-.441-3.975l8.37-.93a2.001 2.001 0 0 1 2.221 1.988v88.917c0 1.02-.767 1.875-1.779 1.987l-52.794 5.866c-.747.084-1.495.126-2.243.126z"/></svg>