<svg version="1.1" xmlns="http://www.w3.org/2000/svg" x="0" y="0" width="679.175" height="75" viewBox="0 0 679.175 75" xml:space="preserve"><g id="illustration"><linearGradient id="ecran_1_" gradientUnits="userSpaceOnUse" x1="68.752" y1="0" x2="68.752" y2="75"><stop offset="0" stop-color="#295c99"/><stop offset="1" stop-color="#034f8f"/></linearGradient><path id="ecran" fill-rule="evenodd" clip-rule="evenodd" fill="url(#ecran_1_)" d="M4.926 0c44.987.607 82.482 2.682 115.093 5.609 2.115.192 4.512 2.313 5.313 4.726 5.941 17.954 9.974 35.828 12.136 53.791.287 2.413-1.151 4.542-3.178 4.744-31.257 3.074-67.778 5.316-112.444 6.129-2.923.05-6.195-2.238-7.215-5.109C7.014 48.353 2.125 26.688.023 5.138-.252 2.266 1.983-.036 4.926 0z"/></g><g id="txt"><path fill="#54564F" d="M191.348 56.547V34.528c0-7.63-4.288-12.645-11.773-12.645-7.267 0-12.862 5.523-12.862 13.227v21.437h-3.561V3.499h3.561V26.39c2.471-4.36 6.613-7.775 13.371-7.775 9.375 0 14.825 6.395 14.825 15.261v22.672h-3.561zM204.137 9.821V4.952h4.433v4.869h-4.433zm.436 46.726V19.486h3.561v37.061h-3.561zM237.347 57.419c-7.413 0-12.208-4.215-15.261-8.865v19.62h-3.561V19.486h3.561v8.284c3.198-4.869 7.921-9.156 15.261-9.156 8.938 0 18.021 7.194 18.021 19.257v.146c0 12.063-9.083 19.402-18.021 19.402zm14.17-19.402c0-9.737-6.758-15.987-14.534-15.987-7.703 0-15.115 6.468-15.115 15.915v.145c0 9.521 7.412 15.915 15.115 15.915 8.066 0 14.534-5.886 14.534-15.842v-.146zM288.288 56.547V50.37c-2.543 3.562-7.122 7.049-14.17 7.049-6.904 0-14.316-3.924-14.316-11.627v-.145c0-7.703 6.613-12.063 16.205-12.063 5.159 0 8.72.654 12.281 1.599v-1.599c0-7.485-4.578-11.336-12.208-11.336-4.505 0-8.212 1.234-11.627 2.979l-1.308-3.124c4.069-1.89 8.066-3.197 13.153-3.197 9.52 0 15.479 4.941 15.479 14.533v23.108h-3.489zm.072-18.094c-3.125-.8-7.267-1.672-12.572-1.672-7.848 0-12.208 3.488-12.208 8.647v.146c0 5.378 5.086 8.502 10.755 8.502 7.558 0 14.025-4.65 14.025-11.408v-4.215zM316.338 57.855c-3.27 7.775-7.049 10.537-12.354 10.537-2.834 0-4.869-.509-7.34-1.599l1.236-3.125c1.962.944 3.561 1.381 6.322 1.381 3.851 0 6.395-2.253 9.156-8.721l-17.804-36.843h4.142l15.406 33.137 13.371-33.137h3.924l-16.059 38.37z"/><path fill="#005493" d="M372.656 18.469v7.267h-10.028v30.812h-8.793V25.735h-4.869v-7.339h4.869v-2.762c0-8.43 4.215-12.572 11.772-12.572 3.052 0 5.16.437 7.122 1.018v7.412c-1.744-.581-3.27-.944-5.16-.944-3.343 0-5.087 1.816-5.087 5.813v2.107h10.174zM400.779 18.178h8.793v38.369h-8.793v-5.958c-2.471 3.633-6.031 6.758-11.99 6.758-8.647 0-13.662-5.813-13.662-14.752V18.178h8.793v21.801c0 5.959 2.979 9.374 8.211 9.374 5.087 0 8.647-3.561 8.647-9.52V18.178zM417.493 56.547V3.499h8.792v53.048h-8.792zM434.643 56.547V3.499h8.793v53.048h-8.793zM464.437 57.274c-5.45 0-11.482-1.963-16.278-5.741l3.924-5.959c4.142 3.125 8.648 4.724 12.572 4.724 3.779 0 5.959-1.599 5.959-4.143v-.145c0-2.979-4.069-3.996-8.575-5.377-5.668-1.599-11.99-3.924-11.99-11.264v-.146c0-7.267 6.032-11.699 13.662-11.699 4.796 0 10.028 1.671 14.098 4.359l-3.488 6.25c-3.706-2.253-7.63-3.634-10.828-3.634-3.416 0-5.377 1.599-5.377 3.852v.146c0 2.762 4.142 3.924 8.647 5.378 5.596 1.743 11.918 4.287 11.918 11.19v.146c-.001 8.066-6.251 12.063-14.244 12.063zM501.717 50.225c4.287 0 7.339-1.599 10.392-4.577l5.159 4.577c-3.633 4.36-8.647 7.194-15.696 7.194-11.118 0-19.693-8.066-19.693-19.983 0-11.046 7.776-20.057 18.749-20.057 12.208 0 18.385 9.592 18.385 20.71 0 .8-.073 1.526-.145 2.398h-28.196c1.016 6.25 5.376 9.738 11.045 9.738zm8.575-15.551c-.581-5.668-3.924-10.101-9.737-10.101-5.378 0-9.157 4.142-9.956 10.101h19.693zM533.037 56.547h-8.793V18.178h8.793v8.647c2.398-5.74 6.831-9.664 13.589-9.374v9.302h-.509c-7.703 0-13.081 5.015-13.081 15.188v14.606zM577.147 18.178h9.229l-15.696 38.66h-7.921l-15.769-38.66h9.447l10.319 28.196 10.391-28.196zM590.372 12.292V3.935h9.447v8.357h-9.447zm.364 44.255V18.178h8.792v38.369h-8.792zM625.108 57.419c-11.409 0-19.839-8.938-19.839-19.911s8.43-20.129 19.912-20.129c7.267 0 11.772 2.688 15.333 6.612l-5.45 5.887c-2.689-2.834-5.523-4.797-9.956-4.797-6.395 0-11.046 5.523-11.046 12.281 0 6.904 4.724 12.427 11.481 12.427 4.143 0 7.194-1.962 9.956-4.796l5.305 5.231c-3.779 4.215-8.211 7.195-15.696 7.195zM661.879 50.225c4.288 0 7.339-1.599 10.392-4.577l5.16 4.577c-3.634 4.36-8.648 7.194-15.697 7.194-11.118 0-19.693-8.066-19.693-19.983 0-11.046 7.776-20.057 18.749-20.057 12.208 0 18.385 9.592 18.385 20.71 0 .8-.073 1.526-.146 2.398h-28.195c1.017 6.25 5.376 9.738 11.045 9.738zm8.575-15.551c-.581-5.668-3.924-10.101-9.737-10.101-5.378 0-9.156 4.142-9.956 10.101h19.693z"/></g><path fill="#2A3F5C" d="M87.715 29.942c-12.891-4.042-28.548-8.945-35.718-11.19-3.496-.981-5.894-.088-6.993.548-3.218 1.866-7.994 4.64-9.002 5.225v.001c-1.865 1.018-2.899 2.777-2.293 4.796 2.954 9.806 6.55 21.711 8.196 27.163.938 2.613 3.455 3.786 4.88 4.233 4.174 1.31 10.311 3.232 11.62 3.644l-.117-.041c2.379.842 5.189.829 7.284-.383l.042-.025-6.655-22.089a5040.728 5040.728 0 0 0-1.518-5.021l.051.016a8916.937 8916.937 0 0 0 11.869 3.717l-.026.016a6441.529 6441.529 0 0 0-7.619 4.422l2.702 8.97.021.069 2.714 9.008c9.604-5.569 20.708-12.017 25.94-15.056 2.558-1.632 2.439-3.697 2.114-4.781l-2.619-8.686c-.403-1.874-2.123-3.691-4.873-4.556z" id="ombre"/><g id="penrose"><g id="_x33__2_" fill="#B4AFAD"><path d="M93.18 37.372c-5.914 3.416-26.025 14.992-26.025 14.992v10.66c9.638-5.564 20.782-12.007 26.034-15.043 2.605-1.652 3.035-4.035 3.037-5.309l-.001-10.377a6.177 6.177 0 0 1-3.045 5.077zM65.61 37.978c-.001-4.584-.004-5.898-.004-5.898l-9.19-5.308.004 31.782c-.001 4.747 5.125 7.706 9.148 5.387l.042-.023v-25.94zM96.223 32.071v.225c.005-.144 0-.225 0-.225z"/></g><path id="ombre_2_" fill="#948985" d="M65.606 32.079l-9.19-5.308.001 10.516c1.416-1.815 3.82-2.836 6.355-2.186l2.837.726-.003-3.748z"/><path id="_x32__2_" fill-rule="evenodd" clip-rule="evenodd" fill="#DCD7D3" d="M84.024 32.096l-9.192 5.306s-1.874-1.077-9.188-5.298c-4.07-2.353-9.188.603-9.189 5.305l.005 21.226c.066 3.768 3.069 5.286 3.069 5.286l-9.183-5.301c-1.102-.637-2.95-2.2-3.079-5.283-.004-6.402-.011-20.385-.011-31.899.004-4.644 5.13-7.604 9.24-5.229 10.893 6.285 27.528 15.887 27.528 15.887z"/><path id="_x31__2_" fill="#FFF" d="M93.232 26.822c-9.971-5.757-22.084-12.741-27.631-15.94-2.734-1.429-5.012-.61-6.115.025-3.229 1.864-8.022 4.636-9.034 5.22-.028.047 3.179-1.476 5.964.067l18.385 10.608c4.072 2.352 4.072 8.263 0 10.61-3.948 2.28-6.31 3.646-7.647 4.419v10.614L93.14 37.438c4.112-2.372 4.112-8.29.092-10.616z"/></g></svg>