<svg version="1.1" xmlns="http://www.w3.org/2000/svg" x="0" y="0" width="271.669" height="30" viewBox="0 0 271.669 30" xml:space="preserve"><path fill-rule="evenodd" clip-rule="evenodd" fill="#FFF" d="M54.987 25.65c-.865-7.185-2.478-14.335-4.854-21.517-.32-.965-1.279-1.812-2.125-1.89C34.963 1.072 19.965.243 1.97 0 .793-.015-.101.906.009 2.055c.841 8.62 2.796 17.286 5.843 25.901C6.26 29.104 7.569 30.02 8.738 30c17.867-.325 32.475-1.222 44.978-2.452.811-.08 1.386-.932 1.271-1.898zm-28.865-.155c-.34.187-.706.281-1.087.281a2.376 2.376 0 0 1-1.628-.662 2.323 2.323 0 0 1-.716-1.692l-.001-8.651a2.427 2.427 0 0 1 2.42-.73l1.013.26v11.194zm-1.08-13.106a2.58 2.58 0 0 0-2.582 2.574l.002 8.492c.011.63.218 1.11.464 1.461L20.2 23.342c-.416-.24-1.121-.822-1.171-2.008-.001-2.561-.004-8.153-.004-12.76a2.304 2.304 0 0 1 1.191-2.006l.046-.017a3.32 3.32 0 0 1 1.173-.229c.398 0 .758.089 1.07.262l7.354 4.243a2.3 2.3 0 0 1 1.16 2.018 2.3 2.3 0 0 1-1.091 1.972c-.235-.135-1.158-.666-3.609-2.081a2.555 2.555 0 0 0-1.277-.347zm12.172 6.698c-2.067 1.195-6.418 3.71-10.23 5.911v-3.981c.75-.433 8.119-4.674 10.351-5.963.54-.324.852-.744 1.033-1.132v3.147c-.001.481-.152 1.382-1.154 2.018zm-.019-4.217l-10.211 5.896v-3.963l2.998-1.732a2.542 2.542 0 0 0 1.282-2.227c0-.933-.479-1.766-1.282-2.229l-7.356-4.244a2.426 2.426 0 0 0-1.19-.293c-.136 0-.274.01-.415.028l.209-.121 2.625-1.517a2.32 2.32 0 0 1 1.157-.311c.393 0 .787.102 1.167.301 2.219 1.279 7.064 4.073 11.052 6.376a2.28 2.28 0 0 1 1.141 1.998c0 .852-.44 1.612-1.177 2.038z" id="penrose"/><g fill="#FFF" id="txt"><path d="M76.539 22.619v-8.808c0-3.052-1.715-5.058-4.709-5.058-2.907 0-5.145 2.209-5.145 5.29v8.575h-1.424V1.399h1.424v9.156c.988-1.744 2.645-3.11 5.348-3.11 3.75 0 5.93 2.559 5.93 6.104v9.069h-1.424zM81.655 3.929V1.981h1.773v1.947h-1.773zm.174 18.69V7.795h1.424v14.824h-1.424zM94.938 22.968c-2.965 0-4.883-1.686-6.104-3.546v7.848H87.41V7.795h1.424v3.313c1.279-1.947 3.168-3.663 6.104-3.663 3.575 0 7.209 2.878 7.209 7.703v.059c0 4.825-3.633 7.761-7.209 7.761zm5.669-7.761c0-3.896-2.704-6.396-5.814-6.396-3.081 0-6.046 2.587-6.046 6.366v.058c0 3.809 2.965 6.366 6.046 6.366 3.227 0 5.814-2.354 5.814-6.337v-.057zM115.315 22.619v-2.471c-1.018 1.424-2.849 2.819-5.668 2.819-2.761 0-5.726-1.569-5.726-4.65v-.059c0-3.081 2.645-4.825 6.482-4.825 2.064 0 3.488.262 4.913.64v-.64c0-2.994-1.832-4.534-4.883-4.534-1.802 0-3.285.494-4.651 1.191l-.523-1.25c1.628-.756 3.227-1.279 5.261-1.279 3.808 0 6.191 1.977 6.191 5.813v9.244h-1.396zm.029-7.238c-1.25-.319-2.907-.668-5.028-.668-3.14 0-4.884 1.395-4.884 3.459v.058c0 2.151 2.035 3.401 4.302 3.401 3.023 0 5.61-1.86 5.61-4.563v-1.687zM126.535 23.143c-1.308 3.109-2.82 4.215-4.941 4.215-1.134 0-1.948-.204-2.936-.64l.494-1.25c.785.378 1.424.552 2.529.552 1.541 0 2.558-.9 3.663-3.488l-7.122-14.736h1.657l6.162 13.255 5.349-13.255h1.569l-6.424 15.347zM149.062 7.388v2.906h-4.011v12.325h-3.518V10.294h-1.947V7.358h1.947V6.254c0-3.372 1.686-5.028 4.709-5.028 1.221 0 2.064.174 2.849.406v2.965c-.697-.232-1.308-.378-2.063-.378-1.337 0-2.035.728-2.035 2.326v.843h4.069zM160.312 7.271h3.517v15.348h-3.517v-2.384c-.988 1.453-2.413 2.703-4.796 2.703-3.459 0-5.464-2.325-5.464-5.9V7.271h3.517v8.72c0 2.384 1.192 3.75 3.285 3.75 2.035 0 3.459-1.424 3.459-3.808V7.271zM166.997 22.619V1.399h3.517v21.22h-3.517zM173.857 22.619V1.399h3.517v21.22h-3.517zM185.775 22.909c-2.18 0-4.593-.784-6.511-2.296l1.569-2.384c1.657 1.25 3.459 1.89 5.029 1.89 1.512 0 2.383-.64 2.383-1.657v-.058c0-1.192-1.627-1.599-3.43-2.151-2.267-.64-4.796-1.569-4.796-4.505v-.059c0-2.906 2.412-4.68 5.464-4.68 1.918 0 4.011.669 5.639 1.744l-1.395 2.5c-1.483-.901-3.052-1.454-4.331-1.454-1.366 0-2.151.64-2.151 1.541v.058c0 1.105 1.657 1.57 3.459 2.151 2.238.697 4.767 1.715 4.767 4.477v.058c.001 3.227-2.499 4.825-5.696 4.825zM200.687 20.09c1.715 0 2.936-.64 4.157-1.831l2.064 1.831c-1.454 1.744-3.459 2.878-6.279 2.878-4.447 0-7.877-3.227-7.877-7.993 0-4.419 3.11-8.023 7.5-8.023 4.883 0 7.354 3.837 7.354 8.284 0 .32-.029.611-.058.96H196.27c.405 2.499 2.149 3.894 4.417 3.894zm3.43-6.22c-.233-2.268-1.57-4.041-3.895-4.041-2.151 0-3.663 1.657-3.982 4.041h7.877zM213.215 22.619h-3.518V7.271h3.518v3.459c.959-2.297 2.732-3.866 5.436-3.75v3.721h-.204c-3.081 0-5.232 2.006-5.232 6.075v5.843zM230.858 7.271h3.692l-6.279 15.464h-3.168l-6.308-15.464h3.779l4.128 11.278 4.156-11.278zM236.149 4.917V1.574h3.779v3.343h-3.779zm.145 17.702V7.271h3.518v15.348h-3.518zM250.043 22.968c-4.563 0-7.936-3.575-7.936-7.965 0-4.389 3.372-8.052 7.965-8.052 2.907 0 4.709 1.076 6.133 2.646l-2.18 2.354c-1.076-1.134-2.209-1.919-3.982-1.919-2.558 0-4.418 2.21-4.418 4.913 0 2.761 1.889 4.971 4.592 4.971 1.657 0 2.878-.785 3.982-1.919l2.122 2.093c-1.511 1.686-3.284 2.878-6.278 2.878zM264.751 20.09c1.715 0 2.936-.64 4.157-1.831l2.063 1.831c-1.453 1.744-3.459 2.878-6.278 2.878-4.447 0-7.877-3.227-7.877-7.993 0-4.419 3.11-8.023 7.5-8.023 4.883 0 7.354 3.837 7.354 8.284 0 .32-.029.611-.058.96h-11.278c.406 2.499 2.15 3.894 4.417 3.894zm3.431-6.22c-.233-2.268-1.57-4.041-3.896-4.041-2.151 0-3.662 1.657-3.982 4.041h7.878z"/></g></svg>