<svg version="1.1" id="hipay-color" xmlns="http://www.w3.org/2000/svg" x="0" y="0" width="156.161" height="75" viewBox="0 0 156.161 75" xml:space="preserve"><path fill-rule="evenodd" clip-rule="evenodd" fill="#C9CCD0" d="M31.045.002c34.062 1.364 62.769 3.754 87.886 6.748 1.63.196 3.49 1.935 4.125 3.872 4.702 14.426 7.934 28.75 9.724 43.1.237 1.928-.856 3.588-2.417 3.7-24.06 1.694-52.026 2.588-85.877 2.158-2.214-.031-4.711-1.915-5.507-4.203-5.946-17.163-9.826-34.362-11.599-51.415-.234-2.274 1.438-4.047 3.665-3.96z"/><path fill-rule="evenodd" clip-rule="evenodd" fill="#00A3E2" d="M4.131 6.831c37.728.509 69.172 2.248 96.521 4.704 1.773.161 3.784 1.939 4.456 3.962 4.982 15.058 8.364 30.048 10.177 45.111.241 2.024-.965 3.81-2.664 3.979-26.213 2.577-56.841 4.458-94.3 5.14-2.451.042-5.195-1.878-6.051-4.285C5.882 47.381 1.783 29.211.019 11.139-.212 8.73 1.664 6.8 4.131 6.831z"/><path fill-rule="evenodd" clip-rule="evenodd" fill="#005493" d="M64.377 18.51c30.248-.448 56.01.362 78.686 1.956 1.472.105 3.171 1.69 3.767 3.532 4.417 13.717 7.506 27.41 9.294 41.196.237 1.853-.73 3.509-2.137 3.69-21.69 2.779-46.779 5.435-76.866 6.113-1.968.042-4.21-1.615-4.948-3.771-5.509-16.165-9.186-32.463-10.993-48.729-.238-2.168 1.22-3.955 3.197-3.987z"/><path fill="#FFF" d="M47.408 52.653V41.107c0-3.155-1.578-4.964-4.349-4.964-2.694 0-4.58 1.886-4.58 5.041v11.469h-4.657V24.559h4.657V35.49c1.309-1.925 3.194-3.58 6.35-3.58 4.58 0 7.236 3.079 7.236 7.813v12.931h-4.657v-.001zm7.649-23.437v-4.427h5.003v4.427h-5.003zm4.849 23.437h-4.657v-20.32h4.657v20.32zm14.887.424c-3.348 0-5.465-1.693-6.889-3.579v9.313h-4.657V32.333h4.657v3.387c1.501-2.117 3.618-3.811 6.889-3.811 4.811 0 9.467 3.811 9.467 10.584s-4.618 10.584-9.467 10.584zM73.715 35.95c-3.156 0-5.927 2.579-5.927 6.543s2.771 6.543 5.927 6.543c3.194 0 5.812-2.502 5.812-6.543 0-4.003-2.655-6.543-5.812-6.543zm25.079 16.703v-2.501c-1.385 1.654-3.502 2.925-6.581 2.925-3.849 0-7.235-2.194-7.235-6.273v-.077c0-4.388 3.502-6.542 8.236-6.542 2.463 0 4.041.346 5.619.846v-.5c0-2.81-1.771-4.349-5.004-4.349-2.271 0-3.964.5-5.812 1.27l-1.27-3.732c2.232-1.001 4.426-1.694 7.736-1.694 6.003 0 8.929 3.156 8.929 8.583v12.046h-4.618v-.002zm.117-8.62c-1.193-.462-2.849-.809-4.657-.809-2.925 0-4.657 1.193-4.657 3.271v.077c0 1.924 1.732 3.002 3.926 3.002 3.079 0 5.389-1.732 5.389-4.272v-1.269h-.001zm17.096 9.197c-1.616 4.157-3.426 5.696-6.697 5.696-1.962 0-3.387-.462-4.811-1.231l1.578-3.464c.847.462 1.771.77 2.732.77 1.309 0 2.117-.577 2.887-2.348l-8.468-20.32h4.965l5.773 15.087 5.272-15.087h4.85l-8.081 20.897z"/></svg>