<svg version="1.1" xmlns="http://www.w3.org/2000/svg" x="0" y="0" width="575.768" height="75" viewBox="0 0 575.768 75" xml:space="preserve"><g id="ecran_1_"><linearGradient id="ecran_2_" gradientUnits="userSpaceOnUse" x1="68.752" y1="75" x2="68.752" y2="0"><stop offset="0" stop-color="#4fb0e4"/><stop offset="1" stop-color="#3bace2"/></linearGradient><path id="ecran" fill-rule="evenodd" clip-rule="evenodd" fill="url(#ecran_2_)" d="M4.926 0c44.987.607 82.482 2.682 115.093 5.609 2.115.192 4.512 2.313 5.313 4.726 5.941 17.954 9.974 35.828 12.136 53.791.287 2.413-1.151 4.542-3.178 4.744-31.257 3.074-67.778 5.316-112.444 6.129-2.923.05-6.195-2.238-7.215-5.109C7.014 48.353 2.125 26.688.023 5.138-.252 2.266 1.983-.036 4.926 0z"/></g><g id="illu"><path fill="#3F768E" d="M42.605 42.609l20.618 16.963V42.609"/><linearGradient id="petit_cercle_2_" gradientUnits="userSpaceOnUse" x1="54.252" y1="46.787" x2="54.252" y2="10.087"><stop offset="0" stop-color="#fcfcfc"/><stop offset="1" stop-color="#e7e7e7"/></linearGradient><path id="petit_cercle_1_" fill-rule="evenodd" clip-rule="evenodd" fill="url(#petit_cercle_2_)" d="M54.251 10.087c10.135 0 18.35 8.216 18.35 18.351 0 10.134-8.215 18.35-18.35 18.35-10.134 0-18.35-8.216-18.35-18.35 0-10.135 8.216-18.351 18.35-18.351z"/><path fill-rule="evenodd" clip-rule="evenodd" fill="#B5B2B3" d="M52.163 43.9c0 .941.051 1.87.149 2.784.637.067 1.284.103 1.939.103 10.134 0 18.35-8.216 18.35-18.35 0-3.364-.91-6.515-2.49-9.226-10.416 3.373-17.948 13.15-17.948 24.689z"/><path fill-rule="evenodd" clip-rule="evenodd" fill="#FFF" d="M78.125 17.944c12.967 0 23.479 10.512 23.479 23.479s-10.512 23.48-23.479 23.48-23.479-10.511-23.479-23.479 10.512-23.48 23.479-23.48z"/></g><g id="txt"><path fill="#54564F" d="M191.348 56.547V34.528c0-7.63-4.288-12.645-11.773-12.645-7.267 0-12.862 5.523-12.862 13.227v21.437h-3.561V3.499h3.561V26.39c2.471-4.36 6.613-7.775 13.371-7.775 9.375 0 14.825 6.395 14.825 15.261v22.672h-3.561zM204.137 9.821V4.952h4.433v4.869h-4.433zm.436 46.726V19.486h3.561v37.061h-3.561zM237.347 57.419c-7.413 0-12.208-4.215-15.261-8.865v19.62h-3.561V19.486h3.561v8.284c3.198-4.869 7.921-9.156 15.261-9.156 8.938 0 18.021 7.194 18.021 19.257v.146c0 12.063-9.083 19.402-18.021 19.402zm14.17-19.402c0-9.737-6.758-15.987-14.534-15.987-7.703 0-15.115 6.468-15.115 15.915v.145c0 9.521 7.412 15.915 15.115 15.915 8.066 0 14.534-5.886 14.534-15.842v-.146zM288.288 56.547V50.37c-2.543 3.562-7.122 7.049-14.17 7.049-6.904 0-14.316-3.924-14.316-11.627v-.145c0-7.703 6.613-12.063 16.205-12.063 5.159 0 8.72.654 12.281 1.599v-1.599c0-7.485-4.578-11.336-12.208-11.336-4.505 0-8.212 1.234-11.627 2.979l-1.308-3.124c4.069-1.89 8.066-3.197 13.153-3.197 9.52 0 15.479 4.941 15.479 14.533v23.108h-3.489zm.072-18.094c-3.125-.8-7.267-1.672-12.572-1.672-7.848 0-12.208 3.488-12.208 8.647v.146c0 5.378 5.086 8.502 10.755 8.502 7.558 0 14.025-4.65 14.025-11.408v-4.215zM316.338 57.855c-3.27 7.775-7.049 10.537-12.354 10.537-2.834 0-4.869-.509-7.34-1.599l1.236-3.125c1.962.944 3.561 1.381 6.322 1.381 3.851 0 6.395-2.253 9.156-8.721l-17.804-36.843h4.142l15.406 33.137 13.371-33.137h3.924l-16.059 38.37z"/><path fill="#00A3E2" d="M396.782 17.379c8.357 0 13.444 5.305 13.444 14.679v24.489h-8.793V34.746c0-6.104-2.834-9.374-7.775-9.374-4.796 0-8.212 3.343-8.212 9.52v21.655h-8.793V34.674c0-5.959-2.907-9.302-7.775-9.302s-8.211 3.634-8.211 9.593v21.582h-8.793V18.178h8.793v5.813c2.471-3.415 5.813-6.612 11.7-6.612 5.522 0 9.374 2.688 11.409 6.758 3.123-4.07 7.193-6.758 13.006-6.758zM435.516 57.419c-11.7 0-20.348-8.938-20.348-19.911 0-11.046 8.721-20.129 20.493-20.129 11.772 0 20.42 8.938 20.42 19.983 0 10.974-8.72 20.057-20.565 20.057zm0-32.338c-7.049 0-11.555 5.523-11.555 12.281 0 6.831 4.869 12.427 11.7 12.427 7.122 0 11.627-5.522 11.627-12.281 0-6.831-4.869-12.427-11.772-12.427zM483.187 57.347c-6.322 0-10.319-3.197-13.007-6.758v5.958h-8.793V3.499h8.793v21.074c2.834-3.997 6.831-7.194 13.007-7.194 9.083 0 17.876 7.194 17.876 19.983 0 12.79-8.72 19.985-17.876 19.985zm-2.035-32.338c-5.959 0-11.191 4.869-11.191 12.354 0 7.485 5.232 12.354 11.191 12.354 6.031 0 10.973-4.724 10.973-12.354 0-7.558-5.014-12.354-10.973-12.354zM506.587 12.292V3.935h9.447v8.357h-9.447zm.363 44.255V18.178h8.793v38.369h-8.793zM524.1 56.547V3.499h8.793v53.048H524.1zM558.472 50.225c4.288 0 7.34-1.599 10.392-4.577l5.16 4.577c-3.634 4.36-8.648 7.194-15.697 7.194-11.118 0-19.693-8.066-19.693-19.983 0-11.046 7.776-20.057 18.749-20.057 12.208 0 18.385 9.592 18.385 20.71 0 .8-.073 1.526-.146 2.398h-28.195c1.017 6.25 5.377 9.738 11.045 9.738zm8.575-15.551c-.581-5.668-3.924-10.101-9.737-10.101-5.377 0-9.156 4.142-9.956 10.101h19.693z"/></g></svg>