<svg version="1.1" xmlns="http://www.w3.org/2000/svg" x="0" y="0" width="230.307" height="30" viewBox="0 0 230.307 30" xml:space="preserve"><path fill-rule="evenodd" clip-rule="evenodd" fill="#FFF" d="M54.987 25.65c-.865-7.186-2.478-14.335-4.854-21.517-.32-.965-1.279-1.813-2.125-1.89C34.963 1.072 19.965.243 1.97 0 .793-.015-.101.906.009 2.055c.841 8.62 2.796 17.286 5.843 25.901.408 1.148 1.717 2.063 2.886 2.043 17.867-.324 32.475-1.222 44.978-2.451.811-.081 1.386-.933 1.271-1.898zM14.36 11.375a7.34 7.34 0 0 1 13.68-3.697l.004.007c-4.167 1.349-7.18 5.26-7.18 9.876 0 .376.021.747.06 1.113a7.342 7.342 0 0 1-6.564-7.299zm16.89 14.586a9.391 9.391 0 0 1-9.392-9.392 9.392 9.392 0 1 1 9.392 9.392z" id="illustration"/><g fill="#FFF" id="txt"><path d="M76.539 22.619v-8.808c0-3.053-1.715-5.058-4.709-5.058-2.907 0-5.145 2.209-5.145 5.29v8.575h-1.424V1.399h1.424v9.156c.988-1.744 2.645-3.11 5.348-3.11 3.75 0 5.93 2.558 5.93 6.104v9.069h-1.424zM81.655 3.929V1.98h1.773v1.948h-1.773zm.174 18.69V7.794h1.424v14.825h-1.424zM94.938 22.968c-2.965 0-4.883-1.687-6.104-3.547v7.849H87.41V7.794h1.424v3.314c1.279-1.948 3.168-3.663 6.104-3.663 3.575 0 7.209 2.878 7.209 7.703v.058c0 4.825-3.633 7.762-7.209 7.762zm5.669-7.762c0-3.895-2.704-6.395-5.814-6.395-3.081 0-6.046 2.587-6.046 6.366v.058c0 3.808 2.965 6.366 6.046 6.366 3.227 0 5.814-2.354 5.814-6.337v-.058zM115.315 22.619v-2.471c-1.018 1.424-2.849 2.819-5.668 2.819-2.761 0-5.726-1.57-5.726-4.651v-.058c0-3.081 2.645-4.825 6.482-4.825 2.064 0 3.488.262 4.913.64v-.64c0-2.994-1.832-4.535-4.883-4.535-1.802 0-3.285.494-4.651 1.192l-.523-1.25c1.628-.756 3.227-1.279 5.261-1.279 3.808 0 6.191 1.977 6.191 5.813v9.244h-1.396zm.029-7.238c-1.25-.319-2.907-.669-5.028-.669-3.14 0-4.883 1.396-4.883 3.46v.058c0 2.151 2.035 3.401 4.302 3.401 3.023 0 5.61-1.86 5.61-4.564v-1.686zM126.535 23.142c-1.308 3.11-2.82 4.215-4.941 4.215-1.134 0-1.948-.203-2.936-.64l.494-1.249c.785.377 1.424.552 2.529.552 1.541 0 2.558-.901 3.663-3.488l-7.122-14.737h1.657l6.163 13.255 5.349-13.255h1.569l-6.425 15.347zM158.713 6.951c3.343 0 5.377 2.122 5.377 5.872v9.796h-3.517v-8.721c0-2.441-1.134-3.75-3.11-3.75-1.918 0-3.285 1.338-3.285 3.809v8.662h-3.517v-8.75c0-2.383-1.163-3.721-3.11-3.721-1.947 0-3.285 1.454-3.285 3.837v8.634h-3.517V7.271h3.517v2.325c.988-1.366 2.326-2.646 4.68-2.646 2.209 0 3.75 1.075 4.563 2.703 1.251-1.627 2.878-2.702 5.204-2.702zM174.206 22.968c-4.68 0-8.139-3.575-8.139-7.965 0-4.418 3.488-8.052 8.197-8.052s8.168 3.575 8.168 7.994c0 4.389-3.488 8.023-8.226 8.023zm0-12.936c-2.819 0-4.622 2.209-4.622 4.913 0 2.731 1.947 4.97 4.68 4.97 2.849 0 4.651-2.209 4.651-4.912 0-2.732-1.948-4.971-4.709-4.971zM193.274 22.938c-2.529 0-4.127-1.279-5.203-2.703v2.384h-3.517V1.399h3.517v8.43c1.134-1.599 2.732-2.878 5.203-2.878 3.634 0 7.151 2.878 7.151 7.994s-3.488 7.993-7.151 7.993zm-.814-12.935c-2.383 0-4.476 1.948-4.476 4.942 0 2.993 2.093 4.941 4.476 4.941 2.413 0 4.39-1.89 4.39-4.941 0-3.023-2.006-4.942-4.39-4.942zM202.635 4.917V1.574h3.779v3.343h-3.779zm.145 17.702V7.271h3.518v15.348h-3.518zM209.64 22.619V1.399h3.518v21.22h-3.518zM223.389 20.09c1.715 0 2.936-.64 4.157-1.831l2.064 1.831c-1.454 1.744-3.459 2.878-6.279 2.878-4.447 0-7.877-3.227-7.877-7.994 0-4.418 3.11-8.022 7.5-8.022 4.883 0 7.354 3.837 7.354 8.284 0 .32-.029.61-.059.959h-11.278c.406 2.499 2.151 3.895 4.418 3.895zm3.43-6.221c-.232-2.267-1.57-4.04-3.895-4.04-2.151 0-3.663 1.657-3.982 4.04h7.877z"/></g></svg>