<svg width="24" height="16" viewBox="0 0 24 16" version="1.1" xmlns="http://www.w3.org/2000/svg"><title>ico-view</title><g id="Page-1" stroke="none" stroke-width="1" fill="none" fill-rule="evenodd"><g id="ico-view" transform="translate(-1)" fill-rule="nonzero" fill="#FFF"><path d="M13 0C5.063 0 .988 8 .988 8S4.063 16 13 16c8.093 0 12.011-7.969 12.011-7.969S21.062 0 13 0zm.018 13c-2.902 0-5-2.188-5-5 0-2.813 2.098-5 5-5s5 2.187 5 5c0 2.812-2.098 5-5 5zm0-8c-1.658.003-3 1.393-3 3 0 1.606 1.342 3 3 3s3-1.395 3-3c0-1.608-1.342-3.003-3-3z" id="Shape"/></g></g></svg>