<svg width="160" height="106" viewBox="0 0 160 106" version="1.1" xmlns="http://www.w3.org/2000/svg"><g id="Page-1" stroke="none" stroke-width="1" fill="none" fill-rule="evenodd"><g id="Desktop-Landscape" transform="translate(-560 -1200)"><g id="Visualize-p3" transform="translate(-3 964)"><g id="engine" transform="translate(563 236)"><g id="rect" opacity=".642"><path d="M72.522 16.426c3.931-1.9 10.301-1.902 14.237 0L156.33 50.06c3.931 1.9 3.935 4.98 0 6.882L86.759 90.574c-3.932 1.9-10.302 1.902-14.237 0L2.95 56.94c-3.931-1.9-3.935-4.98 0-6.882l69.572-33.633z" id="Rectangle-5-Copy" fill="#FFF"/><path d="M72.522 30.426c3.931-1.9 10.301-1.902 14.237 0L156.33 64.06c3.931 1.9 3.935 4.98 0 6.882l-69.572 33.633c-3.932 1.9-10.302 1.902-14.237 0L2.95 70.94c-3.931-1.9-3.935-4.98 0-6.882l69.572-33.633z" id="Rectangle-5-Copy-3" fill="#B8EDFF"/><path d="M72.522 1.426c3.931-1.9 10.301-1.902 14.237 0L156.33 35.06c3.931 1.9 3.935 4.98 0 6.882L86.759 75.574c-3.932 1.9-10.302 1.902-14.237 0L2.95 41.94c-3.931-1.9-3.935-4.98 0-6.882L72.522 1.426z" id="Rectangle-5-Copy-4" fill="#FFF"/></g><g id="science" transform="translate(58 22)" fill-rule="nonzero"><g id="Group" transform="translate(5.672 7.219)" fill="#32A9B8"><path d="M19.907 26.669a1.2 1.2 0 0 1-1.171-.919l-2.957-12.621a1.185 1.185 0 0 1 .901-1.422 1.203 1.203 0 0 1 1.443.888l2.957 12.621a1.185 1.185 0 0 1-.902 1.422c-.09.021-.182.031-.271.031zM1.238 24.825c-.344 0-.685-.144-.923-.424a1.174 1.174 0 0 1 .15-1.67l2.514-2.077a1.215 1.215 0 0 1 1.695.147c.426.501.36 1.25-.15 1.67L2.01 24.548a1.21 1.21 0 0 1-.772.277z" id="Shape"/><path d="M6.987 19.89c-.335 0-.67-.139-.907-.408a1.174 1.174 0 0 1 .117-1.673L25.346 1.371c.5-.43 1.26-.378 1.697.115a1.174 1.174 0 0 1-.117 1.673L7.776 19.598c-.227.195-.508.291-.789.291z" id="Shape"/><path d="M18.784 15.66a1.03 1.03 0 0 1-.756-.323L5.204 1.57A.909.909 0 0 1 5.297.235a1.048 1.048 0 0 1 1.418.087l12.824 13.766a.909.909 0 0 1-.093 1.336c-.19.158-.427.235-.662.235zM31.082 13.205h-2.61c-.665 0-1.203-.531-1.203-1.186 0-.655.538-1.185 1.202-1.185h2.611c.665 0 1.203.53 1.203 1.185s-.538 1.186-1.203 1.186z" id="Shape"/></g><ellipse id="Oval" fill="#DFF5F9" cx="21.954" cy="19.238" rx="7.868" ry="7.756"/><path d="M21.955 28.18c-5.002 0-9.071-4.012-9.071-8.942 0-4.93 4.07-8.941 9.07-8.941 5.002 0 9.072 4.01 9.072 8.941 0 4.93-4.07 8.941-9.071 8.941zm0-15.512c-3.676 0-6.666 2.947-6.666 6.57s2.99 6.57 6.666 6.57c3.675 0 6.665-2.947 6.665-6.57s-2.99-6.57-6.665-6.57z" id="Shape" fill="#32A9B8"/><g id="Group" transform="translate(4.383)" fill="#32A9B8"><path d="M4.527 8.862C2.06 8.862.054 6.884.054 4.453c0-2.43 2.007-4.408 4.473-4.408 2.465 0 4.472 1.978 4.472 4.408 0 2.431-2.007 4.409-4.473 4.409zm0-6.446c-1.14 0-2.067.914-2.067 2.037 0 1.124.927 2.038 2.067 2.038 1.14 0 2.066-.914 2.066-2.038 0-1.123-.927-2.037-2.066-2.037zM21.989 40.955c-2.631 0-4.772-2.11-4.772-4.704s2.14-4.704 4.772-4.704c2.631 0 4.772 2.11 4.772 4.704s-2.14 4.704-4.772 4.704zm0-7.037c-1.305 0-2.367 1.047-2.367 2.333 0 1.286 1.062 2.333 2.367 2.333s2.367-1.047 2.367-2.333c0-1.286-1.062-2.333-2.367-2.333zM29.23 11.302c-1.987 0-3.604-1.594-3.604-3.553 0-1.96 1.616-3.553 3.604-3.553s3.604 1.594 3.604 3.553c0 1.959-1.617 3.553-3.604 3.553zm0-4.735c-.661 0-1.199.53-1.199 1.182 0 .652.538 1.182 1.199 1.182s1.199-.53 1.199-1.182c0-.652-.538-1.182-1.199-1.182z" id="Shape"/></g><ellipse id="Oval" cx="39.82" cy="19.238" rx="2.978" ry="2.935"/><path d="M39.82 23.359c-2.306 0-4.18-1.849-4.18-4.12 0-2.273 1.874-4.122 4.18-4.122 2.305 0 4.18 1.849 4.18 4.121 0 2.272-1.875 4.12-4.18 4.12zm0-5.87c-.98 0-1.775.784-1.775 1.749 0 .965.796 1.75 1.775 1.75.978 0 1.775-.785 1.775-1.75s-.797-1.75-1.775-1.75z" id="Shape" fill="#32A9B8"/><ellipse id="Oval" cx="4.471" cy="33.135" rx="3.269" ry="3.222"/><path d="M4.472 37.544C2.006 37.544 0 35.566 0 33.136c0-2.43 2.006-4.409 4.472-4.409 2.466 0 4.472 1.978 4.472 4.409 0 2.43-2.006 4.408-4.472 4.408zm0-6.445c-1.14 0-2.067.914-2.067 2.037 0 1.123.927 2.037 2.067 2.037 1.14 0 2.067-.914 2.067-2.037 0-1.123-.927-2.037-2.067-2.037z" id="Shape" fill="#32A9B8"/></g></g></g></g></g></svg>