<svg version="1.1" id="Layer_1" xmlns="http://www.w3.org/2000/svg" x="0" y="0" width="21.75" height="20.938" viewBox="4.438 3.25 21.75 20.938" xml:space="preserve"><path fill="#FFF" d="M5.728 24.098c-.462 0-.796-.19-.997-.569-.184-.345-.224-.809-.11-1.305.128-.57.445-1.089.997-1.628.687-.67 1.697-1.345 2.845-1.901a23.148 23.148 0 0 1 1.995-.84c.853-1.329 2.069-3.416 2.944-5.714.099-.261.193-.524.282-.786a12.505 12.505 0 0 1-.571-1.627c-.237-.843-.388-1.598-.45-2.245a8.084 8.084 0 0 1 .034-1.875c.082-.606.218-1.035.429-1.35.268-.391.625-.583.879-.676.197-.072.341-.089.437-.101.184-.032.401-.071.688.016.175.053.349.147.535.26l.005-.011c.854.402.773 1.111.662 2.092l-.045.409c-.122 1.16-.478 3.049-1.101 5.021.048.097.099.196.153.298.467.878 1.145 1.89 1.959 2.923.379.48.816.998 1.271 1.508a15.167 15.167 0 0 1 2.144.01c.732.062 1.465.18 2.123.342.75.182 1.293.395 1.759.688.588.368 1.042.862 1.277 1.391.27.595.28 1.273.026 1.811-.224.477-.658.832-1.255 1.027a2.779 2.779 0 0 1-1.681.007c-.544-.165-1.153-.489-1.869-.994-.705-.5-1.367-1.069-2.148-1.848-.312-.31-.629-.639-.942-.977-.512.058-1.078.146-1.796.276a29.59 29.59 0 0 0-4.831 1.28l-.208.311c-1.1 1.628-2.172 2.906-3.101 3.697-.708.6-1.363.942-2.003 1.05-.118.019-.231.03-.336.03zm3.208-4.077c-1.286.642-2.015 1.259-2.34 1.575-.454.443-.564.733-.609.937a1.037 1.037 0 0 0-.022.125c.352-.092.746-.325 1.197-.708.406-.346 1.004-.939 1.774-1.929zm10.925-2.656l.071.072c.725.722 1.332 1.244 1.97 1.696.573.405 1.078.681 1.46.796.302.09.574.092.854.002.146-.048.346-.14.417-.29.062-.132.076-.39-.038-.642-.123-.276-.394-.559-.745-.778-.334-.211-.748-.369-1.346-.514A12.512 12.512 0 0 0 20.6 17.4c-.243-.017-.49-.029-.739-.035zm-5.3-4.343a32.016 32.016 0 0 1-2.042 4.143l.168-.05a30.929 30.929 0 0 1 3.269-.763c.337-.062.644-.114.929-.159-.24-.284-.471-.565-.687-.839a24.083 24.083 0 0 1-1.637-2.332zm.16-8.188c-.009.001-.1.034-.109.035a.466.466 0 0 0-.125.026.426.426 0 0 0-.202.146c-.043.065-.134.259-.2.753a6.814 6.814 0 0 0-.027 1.553c.045.477.149 1.03.31 1.649.28-1.152.452-2.177.528-2.901l.047-.419c.029-.26.06-.528.064-.685-.094-.055-.231-.138-.286-.157z"/></svg>