<svg width="20" height="20" viewBox="0 0 20 20" version="1.1" xmlns="http://www.w3.org/2000/svg"><g id="FR" stroke="none" stroke-width="1" fill="none" fill-rule="evenodd"><g id="masonry" transform="translate(-81 -1377)"><g id="case-study" transform="translate(55 1040)"><g id="card-copy-4" transform="translate(0 63)"><g id="Group-2" transform="translate(26 274)" fill="#4990E2"><circle id="Oval" cx="10" cy="10" r="10"/></g><g id="1497293517_tag" transform="translate(31 279)" fill-rule="nonzero" fill="#FFF"><path d="M2.957 2.112a.814.814 0 0 0-.247-.597.814.814 0 0 0-.598-.248.814.814 0 0 0-.597.248.814.814 0 0 0-.248.597c0 .233.083.433.248.598a.814.814 0 0 0 .597.247.814.814 0 0 0 .598-.247.814.814 0 0 0 .247-.598zM10 5.914a.809.809 0 0 1-.244.594L6.515 9.756a.845.845 0 0 1-.6.244.809.809 0 0 1-.595-.244L.6 5.03a1.967 1.967 0 0 1-.425-.667A2.038 2.038 0 0 1 0 3.591V.845C0 .616.084.418.25.25A.812.812 0 0 1 .846 0H3.59c.233 0 .49.058.772.175.282.117.506.258.673.426l4.72 4.713a.845.845 0 0 1 .244.6z" id="Shape"/></g></g></g></g></g></svg>