<?xml version="1.0" encoding="UTF-8"?>
<svg width="17px" height="14px" viewBox="0 0 17 14" version="1.1" xmlns="http://www.w3.org/2000/svg" xmlns:xlink="http://www.w3.org/1999/xlink">
    <!-- Generator: Sketch 46.2 (44496) - http://www.bohemiancoding.com/sketch -->
    <title>Shape</title>
    <desc>Created with Sketch.</desc>
    <defs></defs>
    <g id="Page-1" stroke="none" stroke-width="1" fill="none" fill-rule="evenodd">
        <g id="Desktop-Copy" transform="translate(-271.000000, -1691.000000)" fill-rule="nonzero" fill="#FFFFFF">
            <g id="pricing" transform="translate(0.000000, 1180.000000)">
                <g id="professional" transform="translate(204.000000, 247.000000)">
                    <g id="title">
                        <g id="cta" transform="translate(0.000000, 238.000000)">
                            <path d="M67.85,33.7102703 L81.0981,33.7102703 L76.5387,38.2696703 C76.206775,38.6015953 76.206775,39.1398578 76.5384875,39.4715703 C76.8704125,39.8034953 77.4088875,39.8034953 77.7408125,39.4715703 L83.75095,33.4612203 L83.75095,33.4612203 C83.790475,33.4216953 83.82575,33.3781328 83.856775,33.3318078 C83.8710125,33.3103453 83.881,33.2871828 83.893325,33.2648703 C83.90735,33.2385203 83.9235,33.2134453 83.9347625,33.1856078 C83.946875,33.1569203 83.953675,33.1271703 83.962175,33.0974203 C83.9691875,33.0738328 83.978325,33.0513078 83.9832125,33.0270828 C83.9942625,32.9718328 84,32.9161578 84,32.8602703 L84,32.8602703 C84,32.8596328 83.9997875,32.8589953 83.9997875,32.8583578 C83.999575,32.8033203 83.99405,32.7480703 83.9832125,32.6938828 C83.9781125,32.6683828 83.96855,32.6447953 83.9611125,32.6197203 C83.952825,32.5914578 83.94645,32.5627703 83.934975,32.5353578 C83.92265,32.5058203 83.906075,32.4790453 83.890775,32.4512078 C83.8793,32.4303828 83.8701625,32.4091328 83.8569875,32.3891578 C83.8259625,32.3421953 83.7902625,32.2984203 83.750525,32.2586828 L77.7406,26.2489703 C77.408675,25.9170453 76.8704125,25.9170453 76.5384875,26.2487578 C76.2065625,26.5806828 76.2065625,27.1189453 76.5384875,27.4510828 L81.0978875,32.0102703 L67.85,32.0102703 C67.3805875,32.0102703 67,32.3908578 67,32.8602703 C67,33.3296828 67.3805875,33.7102703 67.85,33.7102703 Z" id="Shape"></path>
                        </g>
                    </g>
                </g>
            </g>
        </g>
    </g>
</svg>