<?xml version="1.0" encoding="UTF-8"?>
<svg width="17px" height="14px" viewBox="0 0 17 14" version="1.1" xmlns="http://www.w3.org/2000/svg" xmlns:xlink="http://www.w3.org/1999/xlink">
    <!-- Generator: Sketch 46.2 (44496) - http://www.bohemiancoding.com/sketch -->
    <title>arrow-right-orange</title>
    <desc>Created with Sketch.</desc>
    <defs></defs>
    <g id="Page-1" stroke="none" stroke-width="1" fill="none" fill-rule="evenodd">
        <g id="arrow-right-orange" fill-rule="nonzero" fill="#FF804C">
            <path d="M0.85,7.7102703 L14.0981,7.7102703 L9.5387,12.2696703 C9.206775,12.6015953 9.206775,13.1398578 9.5384875,13.4715703 C9.8704125,13.8034953 10.4088875,13.8034953 10.7408125,13.4715703 L16.75095,7.4612203 L16.75095,7.4612203 C16.790475,7.4216953 16.82575,7.3781328 16.856775,7.3318078 C16.8710125,7.3103453 16.881,7.2871828 16.893325,7.2648703 C16.90735,7.2385203 16.9235,7.2134453 16.9347625,7.1856078 C16.946875,7.1569203 16.953675,7.1271703 16.962175,7.0974203 C16.9691875,7.0738328 16.978325,7.0513078 16.9832125,7.0270828 C16.9942625,6.9718328 17,6.9161578 17,6.8602703 L17,6.8602703 C17,6.8596328 16.9997875,6.8589953 16.9997875,6.8583578 C16.999575,6.8033203 16.99405,6.7480703 16.9832125,6.6938828 C16.9781125,6.6683828 16.96855,6.6447953 16.9611125,6.6197203 C16.952825,6.5914578 16.94645,6.5627703 16.934975,6.5353578 C16.92265,6.5058203 16.906075,6.4790453 16.890775,6.4512078 C16.8793,6.4303828 16.8701625,6.4091328 16.8569875,6.3891578 C16.8259625,6.3421953 16.7902625,6.2984203 16.750525,6.2586828 L10.7406,0.2489703 C10.408675,-0.0829547 9.8704125,-0.0829547 9.5384875,0.2487578 C9.2065625,0.5806828 9.2065625,1.1189453 9.5384875,1.4510828 L14.0978875,6.0102703 L0.85,6.0102703 C0.3805875,6.0102703 0,6.3908578 0,6.8602703 C0,7.3296828 0.3805875,7.7102703 0.85,7.7102703 Z" id="Shape"></path>
        </g>
    </g>
</svg>