<?xml version="1.0" encoding="utf-8"?>
<!-- Generator: Adobe Illustrator 15.0.2, SVG Export Plug-In . SVG Version: 6.00 Build 0)  -->
<!DOCTYPE svg PUBLIC "-//W3C//DTD SVG 1.1//EN" "http://www.w3.org/Graphics/SVG/1.1/DTD/svg11.dtd">
<svg version="1.1" id="Layer_1" xmlns="http://www.w3.org/2000/svg" xmlns:xlink="http://www.w3.org/1999/xlink" x="0px" y="0px"
	 width="115.333px" height="111px" viewBox="71.06 23.122 115.333 111" enable-background="new 71.06 23.122 115.333 111"
	 xml:space="preserve">
<path fill="#FFFFFF" d="M128.778,132.349c-2.399,0-4.756-0.42-7.007-1.249l-39.97-14.727c-0.786-0.29-1.309-1.039-1.309-1.877
	V25.579c0-0.654,0.32-1.267,0.856-1.641c0.537-0.375,1.222-0.463,1.835-0.236l39.97,14.726c3.613,1.331,7.636,1.331,11.25,0
	l39.97-14.726c0.613-0.226,1.299-0.139,1.835,0.236c0.537,0.374,0.856,0.987,0.856,1.641v88.917c0,0.838-0.522,1.587-1.309,1.877
	l-39.97,14.727C133.535,131.929,131.176,132.349,128.778,132.349z M84.492,113.102l38.661,14.244c3.613,1.332,7.636,1.331,11.25,0
	l38.661-14.244V28.447l-37.278,13.734c-4.503,1.66-9.514,1.659-14.015,0L84.492,28.447V113.102z"/>
<path fill="#FFFFFF" d="M128.779,103.148c-1.104,0-2-0.896-2-2V41.414c0-1.104,0.896-2,2-2s2,0.896,2,2v59.735
	C130.779,102.253,129.883,103.148,128.779,103.148z"/>
<path fill="#FFFFFF" d="M128.779,117.715c-1.104,0-2-0.896-2-2v-3.604c0-1.104,0.896-2,2-2s2,0.896,2,2v3.604
	C130.779,116.819,129.883,117.715,128.779,117.715z"/>
<path fill="#FFFFFF" d="M128.778,133.438c-0.748,0-1.496-0.042-2.239-0.125l-52.793-5.866c-1.013-0.112-1.779-0.968-1.779-1.987
	V36.542c0-0.569,0.242-1.111,0.666-1.49c0.424-0.379,0.989-0.56,1.555-0.498l8.37,0.93c1.098,0.122,1.889,1.111,1.767,2.208
	s-1.114,1.89-2.208,1.767l-6.149-0.683v84.893l51.015,5.669c1.193,0.133,2.402,0.132,3.594,0l51.016-5.669V38.776l-6.149,0.683
	c-1.094,0.119-2.086-0.668-2.208-1.767c-0.122-1.098,0.669-2.086,1.767-2.208l8.37-0.93c0.561-0.064,1.13,0.118,1.555,0.498
	c0.424,0.379,0.666,0.921,0.666,1.49v88.917c0,1.02-0.767,1.875-1.779,1.987l-52.794,5.866
	C130.274,133.396,129.526,133.438,128.778,133.438z"/>
</svg>
