<?xml version="1.0" encoding="utf-8"?>
<!-- Generator: Adobe Illustrator 15.0.2, SVG Export Plug-In . SVG Version: 6.00 Build 0)  -->
<!DOCTYPE svg PUBLIC "-//W3C//DTD SVG 1.1//EN" "http://www.w3.org/Graphics/SVG/1.1/DTD/svg11.dtd">
<svg version="1.1" id="hipay-color" xmlns="http://www.w3.org/2000/svg" xmlns:xlink="http://www.w3.org/1999/xlink" x="0px"
	 y="0px" width="156.161px" height="75px" viewBox="0 0 156.161 75" enable-background="new 0 0 156.161 75" xml:space="preserve">
<path fill-rule="evenodd" clip-rule="evenodd" fill="#C9CCD0" d="M31.045,0.002c34.062,1.364,62.769,3.754,87.886,6.748
	c1.63,0.196,3.49,1.935,4.125,3.872c4.702,14.426,7.934,28.75,9.724,43.1c0.237,1.928-0.856,3.588-2.417,3.7
	c-24.06,1.694-52.026,2.588-85.877,2.158c-2.214-0.031-4.711-1.915-5.507-4.203c-5.946-17.163-9.826-34.362-11.599-51.415
	C27.146,1.688,28.818-0.085,31.045,0.002L31.045,0.002L31.045,0.002z"/>
<path fill-rule="evenodd" clip-rule="evenodd" fill="#00A3E2" d="M4.131,6.831c37.728,0.509,69.172,2.248,96.521,4.704
	c1.773,0.161,3.784,1.939,4.456,3.962c4.982,15.058,8.364,30.048,10.177,45.111c0.241,2.024-0.965,3.81-2.664,3.979
	c-26.213,2.577-56.841,4.458-94.3,5.14c-2.451,0.042-5.195-1.878-6.051-4.285C5.882,47.381,1.783,29.211,0.019,11.139
	C-0.212,8.73,1.664,6.8,4.131,6.831L4.131,6.831L4.131,6.831z"/>
<path fill-rule="evenodd" clip-rule="evenodd" fill="#005493" d="M64.377,18.51c30.248-0.448,56.01,0.362,78.686,1.956
	c1.472,0.105,3.171,1.69,3.767,3.532c4.417,13.717,7.506,27.41,9.294,41.196c0.237,1.853-0.73,3.509-2.137,3.69
	c-21.69,2.779-46.779,5.435-76.866,6.113c-1.968,0.042-4.21-1.615-4.948-3.771c-5.509-16.165-9.186-32.463-10.993-48.729
	C60.942,20.329,62.4,18.542,64.377,18.51L64.377,18.51L64.377,18.51z"/>
<path fill="#FFFFFF" d="M47.408,52.653V41.107c0-3.155-1.578-4.964-4.349-4.964c-2.694,0-4.58,1.886-4.58,5.041v11.469h-4.657
	V24.559h4.657v10.931c1.309-1.925,3.194-3.58,6.35-3.58c4.58,0,7.236,3.079,7.236,7.813v12.931H47.408L47.408,52.653z
	 M55.057,29.216v-4.427h5.003v4.427H55.057L55.057,29.216z M59.906,52.653h-4.657v-20.32h4.657V52.653L59.906,52.653z
	 M74.793,53.077c-3.348,0-5.465-1.693-6.889-3.579v9.313h-4.657V32.333h4.657v3.387c1.501-2.117,3.618-3.811,6.889-3.811
	c4.811,0,9.467,3.811,9.467,10.584S79.642,53.077,74.793,53.077L74.793,53.077z M73.715,35.95c-3.156,0-5.927,2.579-5.927,6.543
	s2.771,6.543,5.927,6.543c3.194,0,5.812-2.502,5.812-6.543C79.527,38.49,76.872,35.95,73.715,35.95L73.715,35.95z M98.794,52.653
	v-2.501c-1.385,1.654-3.502,2.925-6.581,2.925c-3.849,0-7.235-2.194-7.235-6.273v-0.077c0-4.388,3.502-6.542,8.236-6.542
	c2.463,0,4.041,0.346,5.619,0.846v-0.5c0-2.81-1.771-4.349-5.004-4.349c-2.271,0-3.964,0.5-5.812,1.27l-1.27-3.732
	c2.232-1.001,4.426-1.694,7.736-1.694c6.003,0,8.929,3.156,8.929,8.583v12.046H98.794L98.794,52.653z M98.911,44.033
	c-1.193-0.462-2.849-0.809-4.657-0.809c-2.925,0-4.657,1.193-4.657,3.271v0.077c0,1.924,1.732,3.002,3.926,3.002
	c3.079,0,5.389-1.732,5.389-4.272V44.033L98.911,44.033z M116.007,53.23c-1.616,4.157-3.426,5.696-6.697,5.696
	c-1.962,0-3.387-0.462-4.811-1.231l1.578-3.464c0.847,0.462,1.771,0.77,2.732,0.77c1.309,0,2.117-0.577,2.887-2.348l-8.468-20.32
	h4.965l5.773,15.087l5.272-15.087h4.85L116.007,53.23L116.007,53.23z"/>
</svg>
