<?xml version="1.0" encoding="utf-8"?>
<!-- Generator: Adobe Illustrator 15.0.2, SVG Export Plug-In . SVG Version: 6.00 Build 0)  -->
<!DOCTYPE svg PUBLIC "-//W3C//DTD SVG 1.1//EN" "http://www.w3.org/Graphics/SVG/1.1/DTD/svg11.dtd">
<svg version="1.1" xmlns="http://www.w3.org/2000/svg" xmlns:xlink="http://www.w3.org/1999/xlink" x="0px" y="0px"
	 width="230.307px" height="30px" viewBox="0 0 230.307 30" enable-background="new 0 0 230.307 30" xml:space="preserve">
<g id="illustration">
	<path fill-rule="evenodd" clip-rule="evenodd" fill="#FFFFFF" d="M54.987,25.65c-0.865-7.186-2.478-14.335-4.854-21.517
		c-0.32-0.965-1.279-1.813-2.125-1.89C34.963,1.072,19.965,0.243,1.97,0C0.793-0.015-0.101,0.906,0.009,2.055
		c0.841,8.62,2.796,17.286,5.843,25.901c0.408,1.148,1.717,2.063,2.886,2.043c17.867-0.324,32.475-1.222,44.978-2.451
		C54.527,27.467,55.102,26.615,54.987,25.65z M14.36,11.375c0-4.054,3.287-7.34,7.34-7.34c2.706,0,5.067,1.464,6.34,3.643
		l0.004,0.007c-4.167,1.349-7.18,5.26-7.18,9.876c0,0.376,0.021,0.747,0.06,1.113C17.236,18.286,14.36,15.166,14.36,11.375z
		 M31.25,25.961c-5.187,0-9.392-4.204-9.392-9.392c0-5.187,4.205-9.392,9.392-9.392c5.187,0,9.392,4.205,9.392,9.392
		C40.642,21.757,36.437,25.961,31.25,25.961z"/>
</g>
<g id="txt">
	<g>
		<path fill="#FFFFFF" d="M76.539,22.619v-8.808c0-3.053-1.715-5.058-4.709-5.058c-2.907,0-5.145,2.209-5.145,5.29v8.575h-1.424
			V1.399h1.424v9.156c0.988-1.744,2.645-3.11,5.348-3.11c3.75,0,5.93,2.558,5.93,6.104v9.069H76.539z"/>
		<path fill="#FFFFFF" d="M81.655,3.929V1.98h1.773v1.948H81.655z M81.829,22.619V7.794h1.424v14.825H81.829z"/>
		<path fill="#FFFFFF" d="M94.938,22.968c-2.965,0-4.883-1.687-6.104-3.547v7.849H87.41V7.794h1.424v3.314
			c1.279-1.948,3.168-3.663,6.104-3.663c3.575,0,7.209,2.878,7.209,7.703v0.058C102.147,20.031,98.514,22.968,94.938,22.968z
			 M100.607,15.206c0-3.895-2.704-6.395-5.814-6.395c-3.081,0-6.046,2.587-6.046,6.366v0.058c0,3.808,2.965,6.366,6.046,6.366
			c3.227,0,5.814-2.354,5.814-6.337V15.206z"/>
		<path fill="#FFFFFF" d="M115.315,22.619v-2.471c-1.018,1.424-2.849,2.819-5.668,2.819c-2.761,0-5.726-1.57-5.726-4.651v-0.058
			c0-3.081,2.645-4.825,6.482-4.825c2.064,0,3.488,0.262,4.913,0.64v-0.64c0-2.994-1.832-4.535-4.883-4.535
			c-1.802,0-3.285,0.494-4.651,1.192l-0.523-1.25c1.628-0.756,3.227-1.279,5.261-1.279c3.808,0,6.191,1.977,6.191,5.813v9.244
			H115.315z M115.344,15.381c-1.25-0.319-2.907-0.669-5.028-0.669c-3.14,0-4.883,1.396-4.883,3.46v0.058
			c0,2.151,2.035,3.401,4.302,3.401c3.023,0,5.61-1.86,5.61-4.564V15.381z"/>
		<path fill="#FFFFFF" d="M126.535,23.142c-1.308,3.11-2.82,4.215-4.941,4.215c-1.134,0-1.948-0.203-2.936-0.64l0.494-1.249
			c0.785,0.377,1.424,0.552,2.529,0.552c1.541,0,2.558-0.901,3.663-3.488l-7.122-14.737h1.657l6.163,13.255l5.349-13.255h1.569
			L126.535,23.142z"/>
		<path fill="#FFFFFF" d="M158.713,6.951c3.343,0,5.377,2.122,5.377,5.872v9.796h-3.517v-8.721c0-2.441-1.134-3.75-3.11-3.75
			c-1.918,0-3.285,1.338-3.285,3.809v8.662h-3.517v-8.75c0-2.383-1.163-3.721-3.11-3.721c-1.947,0-3.285,1.454-3.285,3.837v8.634
			h-3.517V7.271h3.517v2.325c0.988-1.366,2.326-2.646,4.68-2.646c2.209,0,3.75,1.075,4.563,2.703
			C154.76,8.026,156.387,6.951,158.713,6.951z"/>
		<path fill="#FFFFFF" d="M174.206,22.968c-4.68,0-8.139-3.575-8.139-7.965c0-4.418,3.488-8.052,8.197-8.052
			s8.168,3.575,8.168,7.994C182.432,19.334,178.944,22.968,174.206,22.968z M174.206,10.032c-2.819,0-4.622,2.209-4.622,4.913
			c0,2.731,1.947,4.97,4.68,4.97c2.849,0,4.651-2.209,4.651-4.912C178.915,12.271,176.967,10.032,174.206,10.032z"/>
		<path fill="#FFFFFF" d="M193.274,22.938c-2.529,0-4.127-1.279-5.203-2.703v2.384h-3.517V1.399h3.517v8.43
			c1.134-1.599,2.732-2.878,5.203-2.878c3.634,0,7.151,2.878,7.151,7.994C200.425,20.061,196.937,22.938,193.274,22.938z
			 M192.46,10.003c-2.383,0-4.476,1.948-4.476,4.942c0,2.993,2.093,4.941,4.476,4.941c2.413,0,4.39-1.89,4.39-4.941
			C196.85,11.922,194.844,10.003,192.46,10.003z"/>
		<path fill="#FFFFFF" d="M202.635,4.917V1.574h3.779v3.343H202.635z M202.78,22.619V7.271h3.518v15.348H202.78z"/>
		<path fill="#FFFFFF" d="M209.64,22.619V1.399h3.518v21.22H209.64z"/>
		<path fill="#FFFFFF" d="M223.389,20.09c1.715,0,2.936-0.64,4.157-1.831l2.064,1.831c-1.454,1.744-3.459,2.878-6.279,2.878
			c-4.447,0-7.877-3.227-7.877-7.994c0-4.418,3.11-8.022,7.5-8.022c4.883,0,7.354,3.837,7.354,8.284c0,0.32-0.029,0.61-0.059,0.959
			h-11.278C219.377,18.694,221.122,20.09,223.389,20.09z M226.819,13.869c-0.232-2.267-1.57-4.04-3.895-4.04
			c-2.151,0-3.663,1.657-3.982,4.04H226.819z"/>
	</g>
</g>
</svg>
