<?xml version="1.0" encoding="utf-8"?>
<!-- Generator: Adobe Illustrator 15.0.2, SVG Export Plug-In . SVG Version: 6.00 Build 0)  -->
<!DOCTYPE svg PUBLIC "-//W3C//DTD SVG 1.1//EN" "http://www.w3.org/Graphics/SVG/1.1/DTD/svg11.dtd">
<svg version="1.1" xmlns="http://www.w3.org/2000/svg" xmlns:xlink="http://www.w3.org/1999/xlink" x="0px" y="0px"
	 width="575.768px" height="75px" viewBox="0 0 575.768 75" enable-background="new 0 0 575.768 75" xml:space="preserve">
<g id="ecran_1_">
	<linearGradient id="ecran_2_" gradientUnits="userSpaceOnUse" x1="68.7524" y1="75" x2="68.7524" y2="7.105427e-14">
		<stop  offset="0" style="stop-color:#4FB0E4"/>
		<stop  offset="1" style="stop-color:#3BACE2"/>
	</linearGradient>
	<path id="ecran" fill-rule="evenodd" clip-rule="evenodd" fill="url(#ecran_2_)" d="M4.926,0
		c44.987,0.607,82.482,2.682,115.093,5.609c2.115,0.192,4.512,2.313,5.313,4.726c5.941,17.954,9.974,35.828,12.136,53.791
		c0.287,2.413-1.151,4.542-3.178,4.744c-31.257,3.074-67.778,5.316-112.444,6.129c-2.923,0.05-6.195-2.238-7.215-5.109
		C7.014,48.353,2.125,26.688,0.023,5.138C-0.252,2.266,1.983-0.036,4.926,0L4.926,0L4.926,0z"/>
</g>
<g id="illu">
	<polyline fill="#3F768E" points="42.605,42.609 63.223,59.572 63.223,42.609 	"/>
	<linearGradient id="petit_cercle_2_" gradientUnits="userSpaceOnUse" x1="54.2515" y1="46.7871" x2="54.2515" y2="10.0869">
		<stop  offset="0" style="stop-color:#FCFCFC"/>
		<stop  offset="1" style="stop-color:#E7E7E7"/>
	</linearGradient>
	<path id="petit_cercle_1_" fill-rule="evenodd" clip-rule="evenodd" fill="url(#petit_cercle_2_)" d="M54.251,10.087
		c10.135,0,18.35,8.216,18.35,18.351c0,10.134-8.215,18.35-18.35,18.35c-10.134,0-18.35-8.216-18.35-18.35
		C35.901,18.303,44.117,10.087,54.251,10.087L54.251,10.087z"/>
	<path fill-rule="evenodd" clip-rule="evenodd" fill="#B5B2B3" d="M52.163,43.9c0,0.941,0.051,1.87,0.149,2.784
		c0.637,0.067,1.284,0.103,1.939,0.103c10.134,0,18.35-8.216,18.35-18.35c0-3.364-0.91-6.515-2.49-9.226
		C59.695,22.584,52.163,32.361,52.163,43.9z"/>
	<path fill-rule="evenodd" clip-rule="evenodd" fill="#FFFFFF" d="M78.125,17.944c12.967,0,23.479,10.512,23.479,23.479
		S91.092,64.903,78.125,64.903S54.646,54.392,54.646,41.424S65.158,17.944,78.125,17.944L78.125,17.944z"/>
</g>
<g id="txt">
	<g>
		<path fill="#54564F" d="M191.348,56.547V34.528c0-7.63-4.288-12.645-11.773-12.645c-7.267,0-12.862,5.523-12.862,13.227v21.437
			h-3.561V3.499h3.561V26.39c2.471-4.36,6.613-7.775,13.371-7.775c9.375,0,14.825,6.395,14.825,15.261v22.672H191.348z"/>
		<path fill="#54564F" d="M204.137,9.821V4.952h4.433v4.869H204.137z M204.573,56.547V19.486h3.561v37.061H204.573z"/>
		<path fill="#54564F" d="M237.347,57.419c-7.413,0-12.208-4.215-15.261-8.865v19.62h-3.561V19.486h3.561v8.284
			c3.198-4.869,7.921-9.156,15.261-9.156c8.938,0,18.021,7.194,18.021,19.257v0.146C255.368,50.08,246.285,57.419,237.347,57.419z
			 M251.517,38.017c0-9.737-6.758-15.987-14.534-15.987c-7.703,0-15.115,6.468-15.115,15.915v0.145
			c0,9.521,7.412,15.915,15.115,15.915c8.066,0,14.534-5.886,14.534-15.842V38.017z"/>
		<path fill="#54564F" d="M288.288,56.547V50.37c-2.543,3.562-7.122,7.049-14.17,7.049c-6.904,0-14.316-3.924-14.316-11.627v-0.145
			c0-7.703,6.613-12.063,16.205-12.063c5.159,0,8.72,0.654,12.281,1.599v-1.599c0-7.485-4.578-11.336-12.208-11.336
			c-4.505,0-8.212,1.234-11.627,2.979l-1.308-3.124c4.069-1.89,8.066-3.197,13.153-3.197c9.52,0,15.479,4.941,15.479,14.533v23.108
			H288.288z M288.36,38.453c-3.125-0.8-7.267-1.672-12.572-1.672c-7.848,0-12.208,3.488-12.208,8.647v0.146
			c0,5.378,5.086,8.502,10.755,8.502c7.558,0,14.025-4.65,14.025-11.408V38.453z"/>
		<path fill="#54564F" d="M316.338,57.855c-3.27,7.775-7.049,10.537-12.354,10.537c-2.834,0-4.869-0.509-7.34-1.599l1.236-3.125
			c1.962,0.944,3.561,1.381,6.322,1.381c3.851,0,6.395-2.253,9.156-8.721l-17.804-36.843h4.142l15.406,33.137l13.371-33.137h3.924
			L316.338,57.855z"/>
		<path fill="#00A3E2" d="M396.782,17.379c8.357,0,13.444,5.305,13.444,14.679v24.489h-8.793V34.746
			c0-6.104-2.834-9.374-7.775-9.374c-4.796,0-8.212,3.343-8.212,9.52v21.655h-8.793V34.674c0-5.959-2.907-9.302-7.775-9.302
			s-8.211,3.634-8.211,9.593v21.582h-8.793V18.178h8.793v5.813c2.471-3.415,5.813-6.612,11.7-6.612
			c5.522,0,9.374,2.688,11.409,6.758C386.899,20.067,390.969,17.379,396.782,17.379z"/>
		<path fill="#00A3E2" d="M435.516,57.419c-11.7,0-20.348-8.938-20.348-19.911c0-11.046,8.721-20.129,20.493-20.129
			c11.772,0,20.42,8.938,20.42,19.983C456.081,48.336,447.361,57.419,435.516,57.419z M435.516,25.081
			c-7.049,0-11.555,5.523-11.555,12.281c0,6.831,4.869,12.427,11.7,12.427c7.122,0,11.627-5.522,11.627-12.281
			C447.288,30.677,442.419,25.081,435.516,25.081z"/>
		<path fill="#00A3E2" d="M483.187,57.347c-6.322,0-10.319-3.197-13.007-6.758v5.958h-8.793V3.499h8.793v21.074
			c2.834-3.997,6.831-7.194,13.007-7.194c9.083,0,17.876,7.194,17.876,19.983C501.063,50.152,492.343,57.347,483.187,57.347z
			 M481.152,25.009c-5.959,0-11.191,4.869-11.191,12.354c0,7.485,5.232,12.354,11.191,12.354c6.031,0,10.973-4.724,10.973-12.354
			C492.125,29.805,487.111,25.009,481.152,25.009z"/>
		<path fill="#00A3E2" d="M506.587,12.292V3.935h9.447v8.357H506.587z M506.95,56.547V18.178h8.793v38.369H506.95z"/>
		<path fill="#00A3E2" d="M524.1,56.547V3.499h8.793v53.048H524.1z"/>
		<path fill="#00A3E2" d="M558.472,50.225c4.288,0,7.34-1.599,10.392-4.577l5.16,4.577c-3.634,4.36-8.648,7.194-15.697,7.194
			c-11.118,0-19.693-8.066-19.693-19.983c0-11.046,7.776-20.057,18.749-20.057c12.208,0,18.385,9.592,18.385,20.71
			c0,0.8-0.073,1.526-0.146,2.398h-28.195C548.444,46.737,552.804,50.225,558.472,50.225z M567.047,34.674
			c-0.581-5.668-3.924-10.101-9.737-10.101c-5.377,0-9.156,4.142-9.956,10.101H567.047z"/>
	</g>
</g>
</svg>
