<?xml version="1.0" encoding="utf-8"?>
<!-- Generator: Adobe Illustrator 15.0.2, SVG Export Plug-In . SVG Version: 6.00 Build 0)  -->
<!DOCTYPE svg PUBLIC "-//W3C//DTD SVG 1.1//EN" "http://www.w3.org/Graphics/SVG/1.1/DTD/svg11.dtd">
<svg version="1.1" xmlns="http://www.w3.org/2000/svg" xmlns:xlink="http://www.w3.org/1999/xlink" x="0px" y="0px"
	 width="679.175px" height="75px" viewBox="0 0 679.175 75" enable-background="new 0 0 679.175 75" xml:space="preserve">
<g id="illustration">
	<linearGradient id="ecran_1_" gradientUnits="userSpaceOnUse" x1="68.7524" y1="0" x2="68.7524" y2="75">
		<stop  offset="0" style="stop-color:#295C99"/>
		<stop  offset="1" style="stop-color:#034F8F"/>
	</linearGradient>
	<path id="ecran" fill-rule="evenodd" clip-rule="evenodd" fill="url(#ecran_1_)" d="M4.926,0
		c44.987,0.607,82.482,2.682,115.093,5.609c2.115,0.192,4.512,2.313,5.313,4.726c5.941,17.954,9.974,35.828,12.136,53.791
		c0.287,2.413-1.151,4.542-3.178,4.744c-31.257,3.074-67.778,5.316-112.444,6.129c-2.923,0.05-6.195-2.238-7.215-5.109
		C7.014,48.353,2.125,26.688,0.023,5.138C-0.252,2.266,1.983-0.036,4.926,0L4.926,0L4.926,0z"/>
</g>
<g id="txt">
	<g>
		<path fill="#54564F" d="M191.348,56.547V34.528c0-7.63-4.288-12.645-11.773-12.645c-7.267,0-12.862,5.523-12.862,13.227v21.437
			h-3.561V3.499h3.561V26.39c2.471-4.36,6.613-7.775,13.371-7.775c9.375,0,14.825,6.395,14.825,15.261v22.672H191.348z"/>
		<path fill="#54564F" d="M204.137,9.821V4.952h4.433v4.869H204.137z M204.573,56.547V19.486h3.561v37.061H204.573z"/>
		<path fill="#54564F" d="M237.347,57.419c-7.413,0-12.208-4.215-15.261-8.865v19.62h-3.561V19.486h3.561v8.284
			c3.198-4.869,7.921-9.156,15.261-9.156c8.938,0,18.021,7.194,18.021,19.257v0.146C255.368,50.08,246.285,57.419,237.347,57.419z
			 M251.517,38.017c0-9.737-6.758-15.987-14.534-15.987c-7.703,0-15.115,6.468-15.115,15.915v0.145
			c0,9.521,7.412,15.915,15.115,15.915c8.066,0,14.534-5.886,14.534-15.842V38.017z"/>
		<path fill="#54564F" d="M288.288,56.547V50.37c-2.543,3.562-7.122,7.049-14.17,7.049c-6.904,0-14.316-3.924-14.316-11.627v-0.145
			c0-7.703,6.613-12.063,16.205-12.063c5.159,0,8.72,0.654,12.281,1.599v-1.599c0-7.485-4.578-11.336-12.208-11.336
			c-4.505,0-8.212,1.234-11.627,2.979l-1.308-3.124c4.069-1.89,8.066-3.197,13.153-3.197c9.52,0,15.479,4.941,15.479,14.533v23.108
			H288.288z M288.36,38.453c-3.125-0.8-7.267-1.672-12.572-1.672c-7.848,0-12.208,3.488-12.208,8.647v0.146
			c0,5.378,5.086,8.502,10.755,8.502c7.558,0,14.025-4.65,14.025-11.408V38.453z"/>
		<path fill="#54564F" d="M316.338,57.855c-3.27,7.775-7.049,10.537-12.354,10.537c-2.834,0-4.869-0.509-7.34-1.599l1.236-3.125
			c1.962,0.944,3.561,1.381,6.322,1.381c3.851,0,6.395-2.253,9.156-8.721l-17.804-36.843h4.142l15.406,33.137l13.371-33.137h3.924
			L316.338,57.855z"/>
		<path fill="#005493" d="M372.656,18.469v7.267h-10.028v30.812h-8.793V25.735h-4.869v-7.339h4.869v-2.762
			c0-8.43,4.215-12.572,11.772-12.572c3.052,0,5.16,0.437,7.122,1.018v7.412c-1.744-0.581-3.27-0.944-5.16-0.944
			c-3.343,0-5.087,1.816-5.087,5.813v2.107H372.656z"/>
		<path fill="#005493" d="M400.779,18.178h8.793v38.369h-8.793v-5.958c-2.471,3.633-6.031,6.758-11.99,6.758
			c-8.647,0-13.662-5.813-13.662-14.752V18.178h8.793v21.801c0,5.959,2.979,9.374,8.211,9.374c5.087,0,8.647-3.561,8.647-9.52
			V18.178z"/>
		<path fill="#005493" d="M417.493,56.547V3.499h8.792v53.048H417.493z"/>
		<path fill="#005493" d="M434.643,56.547V3.499h8.793v53.048H434.643z"/>
		<path fill="#005493" d="M464.437,57.274c-5.45,0-11.482-1.963-16.278-5.741l3.924-5.959c4.142,3.125,8.648,4.724,12.572,4.724
			c3.779,0,5.959-1.599,5.959-4.143V46.01c0-2.979-4.069-3.996-8.575-5.377c-5.668-1.599-11.99-3.924-11.99-11.264v-0.146
			c0-7.267,6.032-11.699,13.662-11.699c4.796,0,10.028,1.671,14.098,4.359l-3.488,6.25c-3.706-2.253-7.63-3.634-10.828-3.634
			c-3.416,0-5.377,1.599-5.377,3.852v0.146c0,2.762,4.142,3.924,8.647,5.378c5.596,1.743,11.918,4.287,11.918,11.19v0.146
			C478.68,53.277,472.43,57.274,464.437,57.274z"/>
		<path fill="#005493" d="M501.717,50.225c4.287,0,7.339-1.599,10.392-4.577l5.159,4.577c-3.633,4.36-8.647,7.194-15.696,7.194
			c-11.118,0-19.693-8.066-19.693-19.983c0-11.046,7.776-20.057,18.749-20.057c12.208,0,18.385,9.592,18.385,20.71
			c0,0.8-0.073,1.526-0.145,2.398h-28.196C491.688,46.737,496.048,50.225,501.717,50.225z M510.292,34.674
			c-0.581-5.668-3.924-10.101-9.737-10.101c-5.378,0-9.157,4.142-9.956,10.101H510.292z"/>
		<path fill="#005493" d="M533.037,56.547h-8.793V18.178h8.793v8.647c2.398-5.74,6.831-9.664,13.589-9.374v9.302h-0.509
			c-7.703,0-13.081,5.015-13.081,15.188V56.547z"/>
		<path fill="#005493" d="M577.147,18.178h9.229l-15.696,38.66h-7.921l-15.769-38.66h9.447l10.319,28.196L577.147,18.178z"/>
		<path fill="#005493" d="M590.372,12.292V3.935h9.447v8.357H590.372z M590.736,56.547V18.178h8.792v38.369H590.736z"/>
		<path fill="#005493" d="M625.108,57.419c-11.409,0-19.839-8.938-19.839-19.911c0-10.973,8.43-20.129,19.912-20.129
			c7.267,0,11.772,2.688,15.333,6.612l-5.45,5.887c-2.689-2.834-5.523-4.797-9.956-4.797c-6.395,0-11.046,5.523-11.046,12.281
			c0,6.904,4.724,12.427,11.481,12.427c4.143,0,7.194-1.962,9.956-4.796l5.305,5.231C637.025,54.439,632.593,57.419,625.108,57.419z
			"/>
		<path fill="#005493" d="M661.879,50.225c4.288,0,7.339-1.599,10.392-4.577l5.16,4.577c-3.634,4.36-8.648,7.194-15.697,7.194
			c-11.118,0-19.693-8.066-19.693-19.983c0-11.046,7.776-20.057,18.749-20.057c12.208,0,18.385,9.592,18.385,20.71
			c0,0.8-0.073,1.526-0.146,2.398h-28.195C651.851,46.737,656.21,50.225,661.879,50.225z M670.454,34.674
			c-0.581-5.668-3.924-10.101-9.737-10.101c-5.378,0-9.156,4.142-9.956,10.101H670.454z"/>
	</g>
</g>
<g id="image" display="none" opacity="0.7">
	<g id="jDJ3Qg_1_">
		
			<image display="inline" overflow="visible" width="1786" height="372" id="jDJ3Qg" xlink:href="9352FD9C.jpg"  transform="matrix(1.7805 0 0 1.7805 29 -772.165)">
		</image>
	</g>
	<g id="ajFVWP_1_" display="inline">
		
			<image overflow="visible" width="676" height="370" id="ajFVWP" xlink:href="9352FD9D.jpg"  transform="matrix(1 0 0 1 80.002 -726.6646)">
		</image>
	</g>
</g>
<g id="ombre">
	<path fill="#2A3F5C" d="M87.715,29.942c-12.891-4.042-28.548-8.945-35.718-11.19c-3.496-0.981-5.894-0.088-6.993,0.548
		c-3.218,1.866-7.994,4.64-9.002,5.225c0,0,0,0,0,0.001c-1.865,1.018-2.899,2.777-2.293,4.796c2.954,9.806,6.55,21.711,8.196,27.163
		c0.938,2.613,3.455,3.786,4.88,4.233c4.174,1.31,10.311,3.232,11.62,3.644c-0.036-0.012-0.075-0.026-0.117-0.041
		c2.379,0.842,5.189,0.829,7.284-0.383c0.014-0.008,0.028-0.017,0.042-0.025l-6.655-22.089h0c-1.154-3.821-1.504-4.975-1.518-5.021
		c0.017,0.005,0.034,0.011,0.051,0.016c9.174,2.876,11.725,3.673,11.869,3.717c-0.009,0.005-0.018,0.011-0.026,0.016
		c-3.935,2.282-6.288,3.647-7.619,4.422l2.702,8.97l0.021,0.069l2.714,9.008c9.604-5.569,20.708-12.017,25.94-15.056
		c2.558-1.632,2.439-3.697,2.114-4.781c-0.916-3.035-2.242-7.437-2.619-8.686C92.185,32.624,90.465,30.807,87.715,29.942z"/>
</g>
<g id="penrose">
	<g id="_x33__2_">
		<path fill="#B4AFAD" d="M93.18,37.372c-5.914,3.416-26.025,14.992-26.025,14.992v10.66c9.638-5.564,20.782-12.007,26.034-15.043
			c2.605-1.652,3.035-4.035,3.037-5.309c0-3.728-0.001-9.209-0.001-10.377C96.199,33.078,95.909,35.731,93.18,37.372z"/>
		<path fill="#B4AFAD" d="M65.61,37.978L65.61,37.978c-0.001-4.584-0.004-5.898-0.004-5.898l-9.19-5.308
			c0,0,0.002,19.207,0.004,31.782c-0.001,4.747,5.125,7.706,9.148,5.387c0.014-0.007,0.028-0.016,0.042-0.023V37.978z"/>
		<path fill="#B4AFAD" d="M96.223,32.071c0,0,0,0.078,0,0.225C96.228,32.152,96.223,32.071,96.223,32.071z"/>
	</g>
	<path id="ombre_2_" fill="#948985" d="M65.606,32.079l-9.19-5.308c0,0,0,4.473,0.001,10.516c1.416-1.815,3.82-2.836,6.355-2.186
		c1.042,0.267,1.985,0.508,2.837,0.726C65.607,32.967,65.606,32.079,65.606,32.079z"/>
	<path id="_x32__2_" fill-rule="evenodd" clip-rule="evenodd" fill="#DCD7D3" d="M84.024,32.096l-9.192,5.306
		c0,0-1.874-1.077-9.188-5.298c-4.07-2.353-9.188,0.603-9.189,5.305c0,0,0.004,14.396,0.005,21.226
		c0.066,3.768,3.069,5.286,3.069,5.286s-5.552-3.204-9.183-5.301c-1.102-0.637-2.95-2.2-3.079-5.283
		c-0.004-6.402-0.011-20.385-0.011-31.899c0.004-4.644,5.13-7.604,9.24-5.229C67.389,22.494,84.024,32.096,84.024,32.096
		L84.024,32.096z"/>
	<path id="_x31__2_" fill="#FFFFFF" d="M93.232,26.822c-9.971-5.757-22.084-12.741-27.631-15.94
		c-2.734-1.429-5.012-0.61-6.115,0.025c-3.229,1.864-8.022,4.636-9.034,5.22c-0.028,0.047,3.179-1.476,5.964,0.067
		c5.916,3.413,18.385,10.608,18.385,10.608c4.072,2.352,4.072,8.263,0,10.61c-3.948,2.28-6.31,3.646-7.647,4.419v10.614
		c4.364-2.521,17.091-9.87,25.986-15.007C97.252,35.066,97.252,29.148,93.232,26.822z"/>
</g>
</svg>
