<?xml version="1.0" encoding="utf-8"?>
<!-- Generator: Adobe Illustrator 15.0.2, SVG Export Plug-In . SVG Version: 6.00 Build 0)  -->
<!DOCTYPE svg PUBLIC "-//W3C//DTD SVG 1.1//EN" "http://www.w3.org/Graphics/SVG/1.1/DTD/svg11.dtd">
<svg version="1.1" xmlns="http://www.w3.org/2000/svg" xmlns:xlink="http://www.w3.org/1999/xlink" x="0px" y="0px"
	 width="271.669px" height="30px" viewBox="0 0 271.669 30" enable-background="new 0 0 271.669 30" xml:space="preserve">
<g id="penrose">
	<path fill-rule="evenodd" clip-rule="evenodd" fill="#FFFFFF" d="M54.987,25.65c-0.865-7.185-2.478-14.335-4.854-21.517
		c-0.32-0.965-1.279-1.812-2.125-1.89C34.963,1.072,19.965,0.243,1.97,0C0.793-0.015-0.101,0.906,0.009,2.055
		c0.841,8.62,2.796,17.286,5.843,25.901C6.26,29.104,7.569,30.02,8.738,30c17.867-0.325,32.475-1.222,44.978-2.452
		C54.527,27.468,55.102,26.616,54.987,25.65z M26.122,25.495c-0.34,0.187-0.706,0.281-1.087,0.281c-0.596,0-1.189-0.241-1.628-0.662
		c-0.462-0.443-0.716-1.045-0.716-1.692l-0.001-8.651c0.576-0.634,1.476-0.973,2.42-0.73c0.368,0.095,0.704,0.181,1.013,0.26
		c0,0.255,0,0.551,0,0.891V25.495z M25.042,12.389c-1.424,0-2.582,1.155-2.582,2.574l0.002,8.492c0.011,0.63,0.218,1.11,0.464,1.461
		L20.2,23.342c-0.416-0.24-1.121-0.822-1.171-2.008c-0.001-2.561-0.004-8.153-0.004-12.76c0.001-0.859,0.481-1.609,1.191-2.006
		c0.012-0.004,0.025-0.009,0.046-0.017c0.402-0.152,0.796-0.229,1.173-0.229c0.398,0,0.758,0.089,1.07,0.262l7.354,4.243
		c0.727,0.419,1.161,1.174,1.16,2.018c0,0.815-0.407,1.546-1.091,1.972c-0.235-0.135-1.158-0.666-3.609-2.081
		C25.927,12.509,25.485,12.389,25.042,12.389z M37.214,19.087c-2.067,1.195-6.418,3.71-10.23,5.911v-3.981
		c0.75-0.433,8.119-4.674,10.351-5.963c0.54-0.324,0.852-0.744,1.033-1.132v3.147C38.367,17.55,38.216,18.451,37.214,19.087z
		 M37.195,14.87l-10.211,5.896v-3.963c0.544-0.315,1.477-0.854,2.998-1.732c0.803-0.463,1.282-1.296,1.282-2.227
		c0-0.933-0.479-1.766-1.282-2.229l-7.356-4.244c-0.35-0.194-0.751-0.293-1.19-0.293c-0.136,0-0.274,0.01-0.415,0.028l0.209-0.121
		c0.773-0.447,1.821-1.053,2.625-1.517c0.246-0.142,0.646-0.311,1.157-0.311c0.393,0,0.787,0.102,1.167,0.301
		c2.219,1.279,7.064,4.073,11.052,6.376c0.714,0.413,1.141,1.16,1.141,1.998C38.372,13.684,37.932,14.444,37.195,14.87z"/>
</g>
<g id="Calque_4">
	<g display="none">
		<path display="inline" fill="#FFFFFF" d="M539.552-541.292c-27.405,15.832-117.908,67.927-127.124,73.232v48.906
			c46.819-27.036,100.249-57.921,125.642-72.603c12.306-7.808,14.161-18.878,14.168-24.779l-0.005-38.655
			C550.017-550.433,546.181-545.276,539.552-541.292z"/>
		<path display="inline" fill="#FFFFFF" d="M389.396-553.733c-11.601-2.978-22.641,1.177-29.719,8.966l0.013,106.248
			c-0.002,7.959,3.123,15.342,8.798,20.788c5.387,5.17,12.674,8.135,19.995,8.135c4.693,0,9.184-1.161,13.358-3.452v-126.555
			c-0.001-4.185-0.003-7.809-0.005-10.945C398.042-551.52,393.92-552.575,389.396-553.733z"/>
		<path display="inline" fill="#FFFFFF" d="M358.902-647.926l90.34,52.125c9.867,5.699,15.756,15.934,15.753,27.377
			c-0.003,11.438-5.892,21.66-15.753,27.348c-18.678,10.788-30.126,17.407-36.814,21.274v48.679l125.41-72.423
			c9.046-5.221,14.449-14.574,14.454-25.021c0.006-10.288-5.23-19.46-14.006-24.537c-48.985-28.282-108.492-62.596-135.742-78.308
			c-4.667-2.439-9.505-3.69-14.328-3.69c-6.279,0-11.196,2.073-14.215,3.812c-9.878,5.705-22.741,13.139-32.238,18.627l-2.57,1.485
			c1.716-0.227,3.415-0.341,5.087-0.341C349.681-651.52,354.6-650.311,358.902-647.926z"/>
		<path display="inline" fill="#FFFFFF" d="M461.997-568.423c0.003-10.359-5.325-19.623-14.253-24.779l-90.317-52.112
			c-3.83-2.122-8.26-3.205-13.145-3.205c-4.622,0-9.467,0.947-14.403,2.815c-0.251,0.095-0.42,0.159-0.564,0.2
			c-8.717,4.866-14.622,14.085-14.63,24.643c0,56.563,0.036,125.254,0.054,156.709c0.61,14.561,9.269,21.702,14.376,24.658
			l33.482,19.325c-3.013-4.298-5.562-10.2-5.698-17.933l-0.028-104.297c0.002-17.436,14.227-31.62,31.708-31.62
			c5.442,0,10.866,1.473,15.685,4.258c30.104,17.373,41.441,23.902,44.326,25.562C456.996-549.433,461.994-558.408,461.997-568.423z
			"/>
	</g>
</g>
<g id="txt">
	<g>
		<path fill="#FFFFFF" d="M76.539,22.619v-8.808c0-3.052-1.715-5.058-4.709-5.058c-2.907,0-5.145,2.209-5.145,5.29v8.575h-1.424
			V1.399h1.424v9.156c0.988-1.744,2.645-3.11,5.348-3.11c3.75,0,5.93,2.559,5.93,6.104v9.069H76.539z"/>
		<path fill="#FFFFFF" d="M81.655,3.929V1.981h1.773v1.947H81.655z M81.829,22.619V7.795h1.424v14.824H81.829z"/>
		<path fill="#FFFFFF" d="M94.938,22.968c-2.965,0-4.883-1.686-6.104-3.546v7.848H87.41V7.795h1.424v3.313
			c1.279-1.947,3.168-3.663,6.104-3.663c3.575,0,7.209,2.878,7.209,7.703v0.059C102.147,20.032,98.514,22.968,94.938,22.968z
			 M100.607,15.207c0-3.896-2.704-6.396-5.814-6.396c-3.081,0-6.046,2.587-6.046,6.366v0.058c0,3.809,2.965,6.366,6.046,6.366
			c3.227,0,5.814-2.354,5.814-6.337V15.207z"/>
		<path fill="#FFFFFF" d="M115.315,22.619v-2.471c-1.018,1.424-2.849,2.819-5.668,2.819c-2.761,0-5.726-1.569-5.726-4.65v-0.059
			c0-3.081,2.645-4.825,6.482-4.825c2.064,0,3.488,0.262,4.913,0.64v-0.64c0-2.994-1.832-4.534-4.883-4.534
			c-1.802,0-3.285,0.494-4.651,1.191l-0.523-1.25c1.628-0.756,3.227-1.279,5.261-1.279c3.808,0,6.191,1.977,6.191,5.813v9.244
			H115.315z M115.344,15.381c-1.25-0.319-2.907-0.668-5.028-0.668c-3.14,0-4.884,1.395-4.884,3.459v0.058
			c0,2.151,2.035,3.401,4.302,3.401c3.023,0,5.61-1.86,5.61-4.563V15.381z"/>
		<path fill="#FFFFFF" d="M126.535,23.143c-1.308,3.109-2.82,4.215-4.941,4.215c-1.134,0-1.948-0.204-2.936-0.64l0.494-1.25
			c0.785,0.378,1.424,0.552,2.529,0.552c1.541,0,2.558-0.9,3.663-3.488l-7.122-14.736h1.657l6.162,13.255l5.349-13.255h1.569
			L126.535,23.143z"/>
		<path fill="#FFFFFF" d="M149.062,7.388v2.906h-4.011v12.325h-3.518V10.294h-1.947V7.358h1.947V6.254
			c0-3.372,1.686-5.028,4.709-5.028c1.221,0,2.064,0.174,2.849,0.406v2.965c-0.697-0.232-1.308-0.378-2.063-0.378
			c-1.337,0-2.035,0.728-2.035,2.326v0.843H149.062z"/>
		<path fill="#FFFFFF" d="M160.312,7.271h3.517v15.348h-3.517v-2.384c-0.988,1.453-2.413,2.703-4.796,2.703
			c-3.459,0-5.464-2.325-5.464-5.9V7.271h3.517v8.72c0,2.384,1.192,3.75,3.285,3.75c2.035,0,3.459-1.424,3.459-3.808V7.271z"/>
		<path fill="#FFFFFF" d="M166.997,22.619V1.399h3.517v21.22H166.997z"/>
		<path fill="#FFFFFF" d="M173.857,22.619V1.399h3.517v21.22H173.857z"/>
		<path fill="#FFFFFF" d="M185.775,22.909c-2.18,0-4.593-0.784-6.511-2.296l1.569-2.384c1.657,1.25,3.459,1.89,5.029,1.89
			c1.512,0,2.383-0.64,2.383-1.657v-0.058c0-1.192-1.627-1.599-3.43-2.151c-2.267-0.64-4.796-1.569-4.796-4.505v-0.059
			c0-2.906,2.412-4.68,5.464-4.68c1.918,0,4.011,0.669,5.639,1.744l-1.395,2.5c-1.483-0.901-3.052-1.454-4.331-1.454
			c-1.366,0-2.151,0.64-2.151,1.541v0.058c0,1.105,1.657,1.57,3.459,2.151c2.238,0.697,4.767,1.715,4.767,4.477v0.058
			C191.472,21.311,188.972,22.909,185.775,22.909z"/>
		<path fill="#FFFFFF" d="M200.687,20.09c1.715,0,2.936-0.64,4.157-1.831l2.064,1.831c-1.454,1.744-3.459,2.878-6.279,2.878
			c-4.447,0-7.877-3.227-7.877-7.993c0-4.419,3.11-8.023,7.5-8.023c4.883,0,7.354,3.837,7.354,8.284c0,0.32-0.029,0.611-0.058,0.96
			h-11.278C196.675,18.695,198.419,20.09,200.687,20.09z M204.117,13.87c-0.233-2.268-1.57-4.041-3.895-4.041
			c-2.151,0-3.663,1.657-3.982,4.041H204.117z"/>
		<path fill="#FFFFFF" d="M213.215,22.619h-3.518V7.271h3.518v3.459c0.959-2.297,2.732-3.866,5.436-3.75v3.721h-0.204
			c-3.081,0-5.232,2.006-5.232,6.075V22.619z"/>
		<path fill="#FFFFFF" d="M230.858,7.271h3.692l-6.279,15.464h-3.168l-6.308-15.464h3.779l4.128,11.278L230.858,7.271z"/>
		<path fill="#FFFFFF" d="M236.149,4.917V1.574h3.779v3.343H236.149z M236.294,22.619V7.271h3.518v15.348H236.294z"/>
		<path fill="#FFFFFF" d="M250.043,22.968c-4.563,0-7.936-3.575-7.936-7.965c0-4.389,3.372-8.052,7.965-8.052
			c2.907,0,4.709,1.076,6.133,2.646l-2.18,2.354c-1.076-1.134-2.209-1.919-3.982-1.919c-2.558,0-4.418,2.21-4.418,4.913
			c0,2.761,1.889,4.971,4.592,4.971c1.657,0,2.878-0.785,3.982-1.919l2.122,2.093C254.81,21.776,253.037,22.968,250.043,22.968z"/>
		<path fill="#FFFFFF" d="M264.751,20.09c1.715,0,2.936-0.64,4.157-1.831l2.063,1.831c-1.453,1.744-3.459,2.878-6.278,2.878
			c-4.447,0-7.877-3.227-7.877-7.993c0-4.419,3.11-8.023,7.5-8.023c4.883,0,7.354,3.837,7.354,8.284c0,0.32-0.029,0.611-0.058,0.96
			h-11.278C260.74,18.695,262.484,20.09,264.751,20.09z M268.182,13.87c-0.233-2.268-1.57-4.041-3.896-4.041
			c-2.151,0-3.662,1.657-3.982,4.041H268.182z"/>
	</g>
</g>
</svg>
