<?xml version="1.0" encoding="UTF-8"?>
<svg width="24px" height="16px" viewBox="0 0 24 16" version="1.1" xmlns="http://www.w3.org/2000/svg" xmlns:xlink="http://www.w3.org/1999/xlink">
    <!-- Generator: Sketch 47 (45396) - http://www.bohemiancoding.com/sketch -->
    <title>ico-view</title>
    <desc>Created with Sketch.</desc>
    <defs></defs>
    <g id="Page-1" stroke="none" stroke-width="1" fill="none" fill-rule="evenodd">
        <g id="ico-view" transform="translate(-1.000000, 0.000000)" fill-rule="nonzero" fill="#FFFFFF">
            <path d="M13,0 C5.063,0 0.988,8 0.988,8 C0.988,8 4.063,16 13,16 C21.093,16 25.011,8.031 25.011,8.031 C25.011,8.031 21.062,0 13,0 Z M13.018,13 C10.116,13 8.018,10.812 8.018,8 C8.018,5.187 10.116,3 13.018,3 C15.92,3 18.018,5.187 18.018,8 C18.018,10.812 15.92,13 13.018,13 Z M13.018,5 C11.36,5.003 10.018,6.393 10.018,8 C10.018,9.606 11.36,11 13.018,11 C14.676,11 16.018,9.605 16.018,8 C16.018,6.392 14.676,4.997 13.018,5 Z" id="Shape"></path>
        </g>
    </g>
</svg>