<svg xml:space="preserve" enable-background="new 0 0 512 512" viewBox="0 0 512 512" height="20px" width="20px" y="0px" x="0px" xmlns:xlink="http://www.w3.org/1999/xlink" xmlns="http://www.w3.org/2000/svg" id="linkedin-alt" version="1.1">
<path d="M51.326,185.85h90.011v270.872H51.326V185.85z M96.934,55.278
C66.127,55.278,46,75.503,46,102.049c0,26,19.538,46.813,49.756,46.813h0.574c31.396,0,50.948-20.814,50.948-46.813
C146.689,75.503,127.727,55.278,96.934,55.278z M362.339,179.487c-47.778,0-69.185,26.28-81.125,44.71V185.85h-90.038
c1.192,25.411,0,270.872,0,270.872h90.038V305.448c0-8.103,0.589-16.175,2.958-21.978c6.52-16.175,21.333-32.924,46.182-32.924
c32.603,0,45.623,24.852,45.623,61.248v144.926H466V301.398C466,218.199,421.598,179.487,362.339,179.487z" fill="#FFFFFF" id="linkedin"/>
</svg>