<?xml version="1.0" encoding="utf-8"?>
<!-- Generator: Adobe Illustrator 15.0.2, SVG Export Plug-In . SVG Version: 6.00 Build 0)  -->
<!DOCTYPE svg PUBLIC "-//W3C//DTD SVG 1.1//EN" "http://www.w3.org/Graphics/SVG/1.1/DTD/svg11.dtd">
<svg version="1.1" id="Layer_1" xmlns="http://www.w3.org/2000/svg" xmlns:xlink="http://www.w3.org/1999/xlink" x="0px" y="0px"
	 width="21.75px" height="20.938px" viewBox="4.438 3.25 21.75 20.938" enable-background="new 4.438 3.25 21.75 20.938"
	 xml:space="preserve">
<path fill="#FFFFFF" d="M5.728,24.098c-0.462,0-0.796-0.19-0.997-0.569c-0.184-0.345-0.224-0.809-0.11-1.305
	c0.128-0.57,0.445-1.089,0.997-1.628c0.687-0.67,1.697-1.345,2.845-1.901c0.574-0.279,1.257-0.565,1.995-0.84
	c0.853-1.329,2.069-3.416,2.944-5.714c0.099-0.261,0.193-0.524,0.282-0.786c-0.272-0.627-0.44-1.164-0.571-1.627
	c-0.237-0.843-0.388-1.598-0.45-2.245c-0.061-0.636-0.05-1.267,0.034-1.875c0.082-0.606,0.218-1.035,0.429-1.35
	c0.268-0.391,0.625-0.583,0.879-0.676c0.197-0.072,0.341-0.089,0.437-0.101c0.184-0.032,0.401-0.071,0.688,0.016
	c0.175,0.053,0.349,0.147,0.535,0.26l0.005-0.011c0.854,0.402,0.773,1.111,0.662,2.092l-0.045,0.409
	c-0.122,1.16-0.478,3.049-1.101,5.021c0.048,0.097,0.099,0.196,0.153,0.298c0.467,0.878,1.145,1.89,1.959,2.923
	c0.379,0.48,0.816,0.998,1.271,1.508c0.729-0.048,1.446-0.043,2.144,0.01c0.732,0.062,1.465,0.18,2.123,0.342
	c0.75,0.182,1.293,0.395,1.759,0.688c0.588,0.368,1.042,0.862,1.277,1.391c0.27,0.595,0.28,1.273,0.026,1.811
	c-0.224,0.477-0.658,0.832-1.255,1.027c-0.555,0.176-1.102,0.178-1.681,0.007c-0.544-0.165-1.153-0.489-1.869-0.994
	c-0.705-0.5-1.367-1.069-2.148-1.848c-0.312-0.31-0.629-0.639-0.942-0.977c-0.512,0.058-1.078,0.146-1.796,0.276
	c-0.822,0.149-1.836,0.353-3.127,0.729c-0.579,0.17-1.155,0.356-1.704,0.551c-0.073,0.11-0.143,0.214-0.208,0.311
	c-1.1,1.628-2.172,2.906-3.101,3.697c-0.708,0.6-1.363,0.942-2.003,1.05C5.946,24.087,5.833,24.098,5.728,24.098z M8.936,20.021
	c-1.286,0.642-2.015,1.259-2.34,1.575c-0.454,0.443-0.564,0.733-0.609,0.937c-0.011,0.047-0.018,0.088-0.022,0.125
	c0.352-0.092,0.746-0.325,1.197-0.708C7.568,21.604,8.166,21.011,8.936,20.021z M19.861,17.365c0.023,0.024,0.048,0.048,0.071,0.072
	c0.725,0.722,1.332,1.244,1.97,1.696c0.573,0.405,1.078,0.681,1.46,0.796c0.302,0.09,0.574,0.092,0.854,0.002
	c0.146-0.048,0.346-0.14,0.417-0.29c0.062-0.132,0.076-0.39-0.038-0.642c-0.123-0.276-0.394-0.559-0.745-0.778
	c-0.334-0.211-0.748-0.369-1.346-0.514c-0.591-0.146-1.248-0.251-1.904-0.307C20.357,17.383,20.11,17.371,19.861,17.365z
	 M14.561,13.022c-0.616,1.542-1.362,2.973-2.042,4.143c0.056-0.017,0.112-0.033,0.168-0.05c1.354-0.395,2.412-0.607,3.269-0.763
	c0.337-0.062,0.644-0.114,0.929-0.159c-0.24-0.284-0.471-0.565-0.687-0.839C15.567,14.554,15.012,13.761,14.561,13.022z
	 M14.721,4.834c-0.009,0.001-0.1,0.034-0.109,0.035c-0.059,0.007-0.08,0.01-0.125,0.026c-0.05,0.018-0.144,0.062-0.202,0.146
	c-0.043,0.065-0.134,0.259-0.2,0.753c-0.068,0.496-0.077,1.033-0.027,1.553c0.045,0.477,0.149,1.03,0.31,1.649
	c0.28-1.152,0.452-2.177,0.528-2.901l0.047-0.419c0.029-0.26,0.06-0.528,0.064-0.685C14.913,4.936,14.776,4.853,14.721,4.834z"/>
</svg>
