<svg width="20px" height="20px" viewBox="0 0 20 20" version="1.1" xmlns="http://www.w3.org/2000/svg" xmlns:xlink="http://www.w3.org/1999/xlink">
    <!-- Generator: Sketch 44.1 (41455) - http://www.bohemiancoding.com/sketch -->
    <desc>Created with Sketch.</desc>
    <defs></defs>
    <g id="FR" stroke="none" stroke-width="1" fill="none" fill-rule="evenodd">
        <g id="masonry" transform="translate(-81.000000, -1377.000000)">
            <g id="case-study" transform="translate(55.000000, 1040.000000)">
                <g id="card-copy-4" transform="translate(0.000000, 63.000000)">
                    <g id="Group-2" transform="translate(26.000000, 274.000000)" fill="#4990E2">
                        <circle id="Oval" cx="10" cy="10" r="10"></circle>
                    </g>
                    <g id="1497293517_tag" transform="translate(31.000000, 279.000000)" fill-rule="nonzero" fill="#FFFFFF">
                        <path d="M2.95709571,2.11221122 C2.95709571,1.8789879 2.87458746,1.67986799 2.70957096,1.51485149 C2.54455446,1.34983498 2.34543454,1.26732673 2.11221122,1.26732673 C1.8789879,1.26732673 1.67986799,1.34983498 1.51485149,1.51485149 C1.34983498,1.67986799 1.26732673,1.8789879 1.26732673,2.11221122 C1.26732673,2.34543454 1.34983498,2.54455446 1.51485149,2.70957096 C1.67986799,2.87458746 1.8789879,2.95709571 2.11221122,2.95709571 C2.34543454,2.95709571 2.54455446,2.87458746 2.70957096,2.70957096 C2.87458746,2.54455446 2.95709571,2.34543454 2.95709571,2.11221122 Z M10,5.91419142 C10,6.14741474 9.91859186,6.34543454 9.75577558,6.50825083 L6.51485149,9.75577558 C6.34323432,9.91859186 6.1430143,10 5.91419142,10 C5.6809681,10 5.48294829,9.91859186 5.32013201,9.75577558 L0.600660066,5.02970297 C0.433443344,4.86688669 0.291529153,4.64466447 0.174917492,4.3630363 C0.0583058306,4.08140814 0,3.8239824 0,3.59075908 L0,0.844884488 C0,0.616061606 0.0836083608,0.418041804 0.250825083,0.250825083 C0.418041804,0.0836083608 0.616061606,0 0.844884488,0 L3.59075908,0 C3.8239824,0 4.08140814,0.0583058306 4.3630363,0.174917492 C4.64466447,0.291529153 4.86908691,0.433443344 5.03630363,0.600660066 L9.75577558,5.31353135 C9.91859186,5.48514851 10,5.68536854 10,5.91419142 Z" id="Shape"></path>
                    </g>
                </g>
            </g>
        </g>
    </g>
</svg>